<?xml version="1.0" encoding="utf-8"?><svg viewBox="0 0 512 512" xmlns="http://www.w3.org/2000/svg" xmlns:xlink="http://www.w3.org/1999/xlink"><style>:root>svg{display:none}:root>svg:target{display:block}</style><svg viewBox="0 0 16 29" fill="none" id="arrow" xmlns="http://www.w3.org/2000/svg"><path d="M14.149 11.57L2.949 1.006C1.32-.53 0 .73 0 3.821v21.06c0 3.092 1.32 4.352 2.949 2.816l11.2-10.564c1.628-1.536 1.628-4.027 0-5.563z" fill="#23C7EF"/></svg><svg fill="none" viewBox="0 0 65 65" id="broom" xmlns="http://www.w3.org/2000/svg"><path d="M46.84 47.643a3.197 3.197 0 01-3.193-3.194 1.065 1.065 0 00-2.13 0 3.197 3.197 0 01-3.193 3.194 1.065 1.065 0 000 2.13 3.197 3.197 0 013.194 3.193 1.065 1.065 0 102.129 0 3.197 3.197 0 013.193-3.194 1.065 1.065 0 000-2.129zm-4.258 2.133a5.367 5.367 0 00-1.068-1.068 5.364 5.364 0 001.068-1.068c.304.404.663.764 1.068 1.068a5.368 5.368 0 00-1.068 1.068zM10.646 22.094a3.197 3.197 0 013.193 3.194 1.065 1.065 0 102.13 0 3.197 3.197 0 013.193-3.194 1.065 1.065 0 000-2.129 3.197 3.197 0 01-3.193-3.194 1.065 1.065 0 00-2.13 0 3.197 3.197 0 01-3.193 3.194 1.064 1.064 0 100 2.13zm4.258-2.132c.304.404.663.764 1.068 1.067a5.365 5.365 0 00-1.068 1.068 5.365 5.365 0 00-1.068-1.068 5.364 5.364 0 001.068-1.067zm47.904 11.713a3.197 3.197 0 01-3.193-3.194 1.064 1.064 0 10-2.13 0 3.197 3.197 0 01-3.193 3.194 1.064 1.064 0 100 2.129 3.197 3.197 0 013.194 3.194 1.065 1.065 0 002.129 0 3.197 3.197 0 013.193-3.194 1.064 1.064 0 100-2.129zm-4.258 2.132a5.363 5.363 0 00-1.068-1.068 5.363 5.363 0 001.068-1.067c.304.404.664.764 1.068 1.067a5.362 5.362 0 00-1.068 1.068zM27.68 7.19a3.197 3.197 0 013.193 3.194 1.065 1.065 0 102.13 0 3.197 3.197 0 013.193-3.194 1.064 1.064 0 000-2.129A3.197 3.197 0 0133 1.868a1.065 1.065 0 00-2.129 0 3.197 3.197 0 01-3.194 3.193 1.064 1.064 0 100 2.13zm4.258-2.132c.303.405.663.764 1.068 1.068a5.362 5.362 0 00-1.068 1.068 5.362 5.362 0 00-1.068-1.068 5.362 5.362 0 001.068-1.068zm32.065-1.061c0-.888-.345-1.722-.973-2.35a3.327 3.327 0 00-4.7 0L31.286 28.694l-1.415-1.415a1.065 1.065 0 00-1.506 0l-2.642 2.642a9.545 9.545 0 00-4.132-.932c-2.559 0-4.965.996-6.775 2.806l-2.93 2.931L1.51 41.438A3.292 3.292 0 00.02 43.866a3.293 3.293 0 00.95 2.687l17.154 17.154a3.29 3.29 0 002.687.95 3.291 3.291 0 002.428-1.492l6.712-10.373 2.931-2.931.002-.003a9.518 9.518 0 002.804-6.772 9.546 9.546 0 00-.932-4.132l2.642-2.642a1.064 1.064 0 000-1.506l-1.413-1.413L63.029 6.346a3.3 3.3 0 00.973-2.35zM21.45 62.009a1.172 1.172 0 01-1.381.47 1.173 1.173 0 01-.44-.277l-1.803-1.803 3.011-3.01a1.065 1.065 0 00-1.505-1.506l-3.011 3.01-1.506-1.505 3.011-3.01a1.065 1.065 0 00-1.505-1.506l-3.011 3.01-1.505-1.505 3.01-3.01a1.064 1.064 0 10-1.505-1.506l-3.011 3.01-1.505-1.505 3.01-3.01A1.065 1.065 0 0010.3 46.85l-3.011 3.01-1.505-1.505 3.01-3.01a1.065 1.065 0 00-1.505-1.506l-3.01 3.01-1.803-1.801a1.173 1.173 0 01-.171-1.45c.092-.15.216-.277.364-.372l9.745-6.306 15.343 15.344-6.306 9.745zm7.668-11.395L14.063 35.559l1.505-1.506 15.055 15.055-1.505 1.506zm2.957-3.064L17.127 32.6a7.395 7.395 0 014.463-1.482c1.99 0 3.862.775 5.27 2.182l4.516 4.517a7.402 7.402 0 012.182 5.27c0 1.63-.52 3.181-1.483 4.463zm1.517-10.443l-6.023-6.022 1.548-1.548 6.022 6.022-1.547 1.548zM61.523 4.84L34.478 31.887 32.79 30.2 59.835 3.153a1.195 1.195 0 011.688 1.688z" fill="#000"/></svg><svg viewBox="0 0 135 132" id="calendar" xmlns="http://www.w3.org/2000/svg"><path d="M111.726 14.635a6.983 6.983 0 00-6.983-6.983H97.76a6.983 6.983 0 00-13.966 0h-9.31a6.983 6.983 0 00-13.966 0h-9.31a6.983 6.983 0 00-13.966 0h-9.31a6.983 6.983 0 00-13.966 0H6.983A6.983 6.983 0 000 14.635v97.76a2.325 2.325 0 002.328 2.327H9.31v6.983a2.33 2.33 0 002.328 2.328h61.293c.031 0 .054-.016.082-.016a39.538 39.538 0 0061.956-34.119 39.542 39.542 0 00-23.243-34.47V14.635zM88.449 7.652a2.328 2.328 0 014.656 0v6.983h-4.656V7.652zm-23.276 0a2.328 2.328 0 114.656 0v6.983h-4.656V7.652zm-23.276 0a2.328 2.328 0 114.655 0v6.983h-4.655V7.652zm-23.276 0a2.328 2.328 0 014.655 0v6.983h-4.655V7.652zM4.655 14.635a2.327 2.327 0 012.328-2.328h6.983v4.655a2.327 2.327 0 002.327 2.328h9.31a2.328 2.328 0 002.328-2.328v-4.655h9.31v4.655a2.327 2.327 0 002.328 2.328h9.31a2.328 2.328 0 002.329-2.328v-4.655h9.31v4.655a2.328 2.328 0 002.328 2.328h9.31a2.328 2.328 0 002.328-2.328v-4.655h9.31v4.655a2.327 2.327 0 002.328 2.328h9.31a2.328 2.328 0 002.328-2.328v-4.655h6.983a2.33 2.33 0 012.327 2.328v11.638H4.655V14.635zm9.31 100.087h49.54a39.485 39.485 0 003.929 4.655H13.966v-4.655zm116.382-23.276c0 19.283-15.632 34.914-34.915 34.914-19.282 0-34.914-15.631-34.914-34.914 0-19.282 15.632-34.914 34.914-34.914 19.274.021 34.893 15.64 34.915 34.914zm-34.915-39.57a39.542 39.542 0 00-34.896 58.191H4.656V30.928H107.07v22.701a39.454 39.454 0 00-11.638-1.752z"/><path d="M20.949 40.239a6.983 6.983 0 100 13.966 6.983 6.983 0 000-13.966zm0 9.31a2.327 2.327 0 110-4.654 2.327 2.327 0 010 4.654zm23.276-9.31a6.983 6.983 0 100 13.966 6.983 6.983 0 000-13.966zm0 9.31a2.327 2.327 0 110-4.654 2.327 2.327 0 010 4.654zm23.276-9.31a6.983 6.983 0 100 13.966 6.983 6.983 0 000-13.966zm0 9.31a2.327 2.327 0 110-4.655 2.327 2.327 0 010 4.655zm-46.552 9.31a6.983 6.983 0 100 13.967 6.983 6.983 0 000-13.966zm0 9.31a2.328 2.328 0 110-4.654 2.328 2.328 0 010 4.655zm23.276-9.31a6.983 6.983 0 100 13.967 6.983 6.983 0 000-13.966zm0 9.31a2.327 2.327 0 110-4.654 2.327 2.327 0 010 4.655zM20.949 77.48a6.983 6.983 0 100 13.967 6.983 6.983 0 000-13.967zm0 9.31a2.328 2.328 0 110-4.654 2.328 2.328 0 010 4.655zm23.276-9.31a6.983 6.983 0 100 13.967 6.983 6.983 0 000-13.967zm0 9.31a2.328 2.328 0 110-4.654 2.328 2.328 0 010 4.655zm20.948 4.656c0 16.712 13.548 30.259 30.26 30.259 16.711 0 30.258-13.547 30.258-30.259s-13.547-30.259-30.259-30.259c-16.703.02-30.24 13.556-30.259 30.26zm55.863 0h-4.655a2.33 2.33 0 00-1.646 3.974 2.33 2.33 0 001.646.681h4.211a25.635 25.635 0 01-22.832 20.831v-4.537a2.326 2.326 0 00-3.974-1.646 2.326 2.326 0 00-.681 1.646v4.537a25.635 25.635 0 01-22.832-20.83h4.21a2.328 2.328 0 100-4.656H69.83c.017-13.23 10.102-24.272 23.276-25.484v4.535a2.328 2.328 0 104.655 0v-4.535c13.173 1.212 23.259 12.255 23.276 25.484z"/><path d="M95.933 90.329l-3.22-4.83a2.33 2.33 0 00-4.219.836 2.329 2.329 0 00.347 1.748l4.655 6.983a2.335 2.335 0 003.427.498l13.965-11.638a2.325 2.325 0 00.3-3.28 2.328 2.328 0 00-3.28-.3l-11.975 9.983z"/></svg><svg fill="none" viewBox="0 0 72 51" id="car" xmlns="http://www.w3.org/2000/svg"><path d="M13.772 40.596a3.443 3.443 0 100 6.885 3.443 3.443 0 000-6.885zm0 4.591a1.148 1.148 0 110-2.295 1.148 1.148 0 010 2.295zm44.762-4.59a3.443 3.443 0 100 6.884 3.443 3.443 0 000-6.885zm0 4.59a1.148 1.148 0 110-2.295 1.148 1.148 0 010 2.295z" fill="#000"/><path d="M67.142.426H25.824a4.021 4.021 0 00-4.017 4.017v6.312H10.33a1.15 1.15 0 00-.998.579L.151 27.402a1.15 1.15 0 00-.151.57V41.17a4.021 4.021 0 004.017 4.017h2.967a6.885 6.885 0 0013.578 0h31.183a6.885 6.885 0 0013.578 0h1.82a4.021 4.021 0 004.016-4.017V4.443A4.022 4.022 0 0067.142.426zM9.028 16.494h8.188v10.33H3.126l5.902-10.33zM2.295 32.562h2.296a1.148 1.148 0 010 2.296H2.295v-2.296zm11.478 16.069a4.591 4.591 0 114.59-4.591 4.597 4.597 0 01-4.59 4.59zm8.034-5.74h-1.245a6.885 6.885 0 00-13.578 0H4.017a1.723 1.723 0 01-1.722-1.72v-4.018h2.296a3.443 3.443 0 000-6.886H2.295v-1.148h16.069a1.148 1.148 0 001.147-1.148V15.346a1.148 1.148 0 00-1.147-1.147H10.34l.655-1.148h10.812v29.84zm36.727 5.74a4.591 4.591 0 114.591-4.591 4.597 4.597 0 01-4.59 4.59zm10.33-7.46a1.723 1.723 0 01-1.722 1.72h-1.819a6.885 6.885 0 00-13.578 0H24.102v-8.033h44.762v6.312zm0-8.609H24.102V4.442a1.723 1.723 0 011.722-1.72h41.318a1.723 1.723 0 011.722 1.72v28.12z" fill="#000"/></svg><svg fill="none" viewBox="0 0 71 84" id="contract" xmlns="http://www.w3.org/2000/svg"><path d="M69.855 50.407L52.249 32.8a1.423 1.423 0 00-1.956 0l-7.826 7.825a1.384 1.384 0 000 1.956l.978.978-2.643 2.643-2.118.421-4.042-4.042a1.384 1.384 0 00-.979-.405h-5.295l-2.53-2.529c.54-.54.54-1.416 0-1.956l-7.824-7.827a1.386 1.386 0 00-1.958 0L.406 45.517a1.383 1.383 0 000 1.956l7.824 7.825a1.384 1.384 0 001.956 0l8.983 8.982a4.116 4.116 0 003.522 5.908 4.084 4.084 0 003.917 3.911 4.084 4.084 0 003.906 3.906 4.142 4.142 0 007.055 2.717l1.47 1.47a4.136 4.136 0 007.074-2.715 4.08 4.08 0 003.91-3.91 4.091 4.091 0 003.914-3.914 4.132 4.132 0 002.718-7.055l-1.463-1.464 3.909-3.917.978.98a1.382 1.382 0 001.956 0l7.826-7.826a1.384 1.384 0 000-1.956l-.006-.007zm-25.92 5.38a1.38 1.38 0 010 1.955 1.412 1.412 0 01-1.957 0l-5.869-5.867a1.383 1.383 0 00-1.956 0 4.15 4.15 0 01-5.87 0L26.33 53.83a6.923 6.923 0 001.705 1.226l-7.084 7.088-4.896-4.89 12.312-12.311h4.723l10.843 10.843zM9.212 52.361l-5.874-5.869 13.696-13.695 5.868 5.87-13.69 13.694zm14.673-10.759l1.953 1.956-11.74 11.738-1.956-1.956 11.743-11.738zM34.63 79.166a1.362 1.362 0 01-.968-.397 1.383 1.383 0 01-.015-1.936l.015-.016 2.843-2.843 1.066-1.064-1.953-1.961-1.07 1.07-2.853 2.842-.012.016a1.383 1.383 0 01-1.937-1.972l3.916-3.914-1.956-1.955-3.912 3.913a1.382 1.382 0 11-1.957-1.956l3.913-3.912-1.956-1.956-3.915 3.912a1.414 1.414 0 01-1.955 0 1.384 1.384 0 010-1.956l9.248-9.252a6.881 6.881 0 003.865-1.119l4.988 4.989a4.25 4.25 0 005.87 0 4.15 4.15 0 000-5.869l-4.855-4.855 12.195 12.194-.415.415a4.105 4.105 0 00-5.194 3.776 4.09 4.09 0 00-3.914 3.95 4.01 4.01 0 00-3.909 3.873 4.102 4.102 0 00-3.78 5.182l-.416.415a1.37 1.37 0 01-.977.386zm8.325 1.075a1.415 1.415 0 01-1.956 0l-1.957-1.96a1.383 1.383 0 011.952-1.953l1.962 1.953a1.367 1.367 0 01.405.977 1.382 1.382 0 01-.405.983zm3.913-3.913a1.382 1.382 0 01-1.957 0l-1.956-1.957a1.384 1.384 0 011.955-1.957l1.956 1.956a1.383 1.383 0 01.002 1.958zm3.91-3.914a1.414 1.414 0 01-1.954 0l-1.956-1.956a1.383 1.383 0 011.956-1.956l1.956 1.956a1.384 1.384 0 01-.002 1.956zm3.915-3.912a1.38 1.38 0 01-1.958 0l-1.955-1.956a1.383 1.383 0 01-.002-1.959 1.385 1.385 0 011.96 0l1.95 1.96a1.383 1.383 0 010 1.955h.005zm.49-9.293L43.446 47.47l1.955-1.956 11.738 11.739-1.956 1.955zm5.87-1.955L45.4 41.604l5.87-5.87 15.65 15.651-5.868 5.869zM8.763 79.526V57.393H5.997v22.133a4.15 4.15 0 004.15 4.15H28.13v-2.767H10.147a1.383 1.383 0 01-1.383-1.383z" fill="#000"/><path d="M61.33 79.526a1.383 1.383 0 01-1.383 1.383H48.881v2.767h11.066a4.15 4.15 0 004.15-4.15v-16.6h-2.766v16.6zM8.765 4.826a1.383 1.383 0 011.383-1.384h38.734v9.684a4.15 4.15 0 004.15 4.15h8.3v22.133h2.766V15.934c0-.341-.126-.67-.354-.924L51.293 1.135a1.381 1.381 0 00-1.03-.46H10.148a4.15 4.15 0 00-4.15 4.15v29.05h2.767V4.826zm42.883 8.3v-7.45l7.93 8.833H53.03a1.383 1.383 0 01-1.384-1.383z" fill="#000"/><path d="M14.297 8.976h2.767v2.766h-2.767V8.976zm5.533 0h11.067v2.766H19.83V8.976zm-5.533 5.533h16.6v2.767h-16.6v-2.767zm0 8.3h5.533v2.767h-5.533v-2.767zm8.3 0h33.2v2.767h-33.2v-2.767zm2.766 8.3h20.75v2.767h-20.75v-2.767z" fill="#000"/></svg><svg fill="none" viewBox="0 0 111 124" id="documentation" xmlns="http://www.w3.org/2000/svg"><path d="M3.952 12.443h59.274v13.83c0 1.093.882 1.976 1.975 1.976h13.831v15.807h3.952V26.273a1.971 1.971 0 00-.581-1.398l-15.8-15.801a1.975 1.975 0 00-1.401-.583H11.854V4.54h75.08v43.467h3.952V2.564A1.973 1.973 0 0088.911.588H9.88a1.973 1.973 0 00-1.976 1.976V8.49H1.976A1.973 1.973 0 000 10.467v110.645c0 1.093.883 1.976 1.976 1.976h67.177v-3.952H3.952V12.443zm63.225 2.794l9.061 9.06h-9.06v-9.06z" fill="#23C7EF"/><path d="M108.669 59.862h-2.975A29.556 29.556 0 0182.927 49.2l-.4-.48c-.748-.903-2.288-.903-3.037 0l-.399.479a29.558 29.558 0 01-22.769 10.663h-2.975a1.973 1.973 0 00-1.976 1.976v32c0 7.78 4.197 15.012 10.952 18.871l17.705 10.118a1.972 1.972 0 001.96 0l17.705-10.118a21.78 21.78 0 0010.952-18.871v-32a1.973 1.973 0 00-1.976-1.976zm-1.975 33.975a17.813 17.813 0 01-8.96 15.439l-16.726 9.562-16.725-9.559a17.82 17.82 0 01-8.96-15.442V63.813h1a33.492 33.492 0 0024.685-10.81 33.49 33.49 0 0024.686 10.81h1v30.024z" fill="#23C7EF"/><path d="M81.008 65.79c-11.983 0-21.734 9.75-21.734 21.733s9.751 21.734 21.734 21.734c11.984 0 21.734-9.75 21.734-21.734 0-11.983-9.75-21.734-21.734-21.734zm0 39.515c-9.805 0-17.782-7.976-17.782-17.782 0-9.805 7.977-17.782 17.782-17.782 9.806 0 17.782 7.977 17.782 17.782 0 9.806-7.976 17.782-17.782 17.782z" fill="#23C7EF"/><path d="M80.066 93.666l-3.588-3.588-2.794 2.794 5.927 5.927a1.971 1.971 0 002.762.031c.247-.236.43-.533.528-.86l5.927-19.758-3.785-1.135-4.977 16.589zM7.903 32.2h51.371v3.951H7.904v-3.951zm0 7.903h51.371v3.952H7.904v-3.952zm0 7.903h51.371v3.952H7.904v-3.952zm0 7.903H47.42v3.952H7.903V55.91zm0 7.904H47.42v3.951H7.903v-3.951zm0 7.903H47.42v3.951H7.903v-3.951zm0 23.71H47.42v3.951H7.903v-3.952zm0 7.903H47.42v3.951H7.903v-3.951zm0 7.903H47.42v3.951H7.903v-3.951zM9.88 16.394h3.952v3.952H9.879v-3.952zm7.903 0h3.952v3.952h-3.952v-3.952zm7.904 0h3.951v3.952h-3.951v-3.952zm7.903 0h25.685v3.952H33.59v-3.952z" fill="#23C7EF"/></svg><svg fill="none" viewBox="0 0 67 67" id="done" xmlns="http://www.w3.org/2000/svg"><path d="M63.7 40.273a3.29 3.29 0 00-2.89 1.741 8.778 8.778 0 01-4.672-2.89 21.274 21.274 0 00-3.12-3.552A113.413 113.413 0 0050.5 33.29 25.294 25.294 0 1025.81 51.261c.376.65.912 1.194 1.557 1.58a4.351 4.351 0 001.894 6.97 4.4 4.4 0 003.64 6.862h16.5c4.47 0 6.93 0 10.51-2.385.487-.33.942-.606 1.387-.869A3.29 3.29 0 0067 61.173v-17.6a3.3 3.3 0 00-3.3-3.3zm-60.5-14.3a23.1 23.1 0 1145.44 5.86c-.075-.06-.143-.11-.232-.188a5.695 5.695 0 01-1.54-2.09c.216-1.182.328-2.38.332-3.582.011-11.484-9.247-20.825-20.73-20.919-11.485-.092-20.892 9.097-21.068 20.58C5.226 37.116 14.35 46.59 25.83 46.85a4.353 4.353 0 00-.62 2.17C12.904 48.431 3.222 38.292 3.2 25.972zm37.4 12.09l-8.8.01a4.426 4.426 0 00-4.131 2.88 4.357 4.357 0 00-.261 1.757c.041.662.238 1.305.576 1.877-.56.05-1.124.086-1.683.086-10.082 0-18.349-7.991-18.69-18.069C7.27 16.528 14.979 7.997 25.038 7.318c10.059-.68 18.847 6.735 19.866 16.766a4.385 4.385 0 00-7.597 2.718c-.313 4.604.97 7.613 3.293 11.261zm18.094 24.395c-3.024 2.015-4.986 2.015-9.294 2.015H32.9a2.2 2.2 0 010-4.4H34a1.1 1.1 0 000-2.2h-3.3a2.2 2.2 0 010-4.4H34a1.1 1.1 0 000-2.2h-4.4a2.2 2.2 0 010-4.4H34a1.1 1.1 0 000-2.2h-2.013a2.339 2.339 0 01-2.387-2.081 2.2 2.2 0 012.2-2.319l8.8-.01a2.201 2.201 0 001.852-3.386c-2.127-3.337-3.228-5.908-2.954-9.933a2.2 2.2 0 014.388-.12 9.97 9.97 0 003.123 6.52c.66.55.937.738 1.177.907 1.175.9 2.29 1.878 3.335 2.927a19.465 19.465 0 012.843 3.24 11.09 11.09 0 006.036 3.768v16.987c0 .073.017.14.02.212-.55.322-1.12.668-1.726 1.073zm6.106-1.285a1.1 1.1 0 01-2.2 0v-17.6a1.1 1.1 0 112.2 0v17.6z" fill="#000"/><path d="M38.078 17.495a1.1 1.1 0 00-1.555 0L20.8 33.218l-4.722-4.723a1.1 1.1 0 00-1.555 1.556l5.5 5.5a1.1 1.1 0 001.555 0l16.5-16.5a1.1 1.1 0 000-1.556z" fill="#000"/></svg><svg fill="none" viewBox="0 0 26 33" id="geo" xmlns="http://www.w3.org/2000/svg"><path fill-rule="evenodd" clip-rule="evenodd" d="M13.005 18.684a6 6 0 100-12 6 6 0 000 12zm0-2.662a3.338 3.338 0 110-6.676 3.338 3.338 0 010 6.676z" fill="#23C7EF"/><path fill-rule="evenodd" clip-rule="evenodd" d="M25.363 15.455C27.085 7.73 21.007.018 13 .018 4.995.018-1.085 7.74.637 15.456c1.33 6.266 6.706 12.352 9.914 15.526a3.45 3.45 0 004.897 0c3.209-3.174 8.585-9.26 9.915-15.527zM13 2.685c6.283 0 11.116 6.114 9.76 12.19-.651 2.919-2.112 5.54-3.827 7.963-1.791 2.533-3.823 4.727-5.36 6.248a.785.785 0 01-1.146 0c-1.538-1.52-3.569-3.715-5.36-6.247-1.715-2.424-3.175-5.045-3.827-7.964C1.886 8.81 6.72 2.685 13 2.685z" fill="#23C7EF"/></svg><svg fill="none" viewBox="0 0 114 120" id="guarantee" xmlns="http://www.w3.org/2000/svg"><path fill-rule="evenodd" clip-rule="evenodd" d="M56.744 36.948c11.362 0 21.65 4.606 29.097 12.054 7.445 7.446 12.054 17.735 12.054 29.1 0 11.364-4.606 21.65-12.054 29.096-7.449 7.446-17.734 12.052-29.097 12.052-11.362 0-21.65-4.606-29.099-12.052-7.446-7.446-12.052-17.734-12.052-29.097 0-11.362 4.606-21.65 12.052-29.099 7.448-7.448 17.737-12.054 29.099-12.054zm-39.2-22.527a1.656 1.656 0 00-1.076-1.084 1.66 1.66 0 00-2.087 1.072l-2.987 9.26-9.611-.02a1.66 1.66 0 00-1.096 3.002l7.884 5.704-3.026 9.25.005.002a1.663 1.663 0 00.235 1.487c.54.74 1.574.903 2.313.364l7.864-5.737 7.762 5.66a1.658 1.658 0 002.655-1.778l-3.026-9.248 7.883-5.704-.002-.003a1.652 1.652 0 00.684-1.343 1.657 1.657 0 00-1.656-1.656l-9.732.02-2.985-9.248zm.198 11.412l-1.783-5.518-1.782 5.518a1.657 1.657 0 01-1.578 1.15l-5.804-.012 4.701 3.401a1.661 1.661 0 01.604 1.859l-1.804 5.518 4.663-3.4a1.657 1.657 0 011.977-.02l4.69 3.42-1.786-5.456a1.66 1.66 0 01.585-1.92l4.7-3.402-5.724.012a1.66 1.66 0 01-1.66-1.15zm81.367-11.412a1.656 1.656 0 00-1.076-1.084 1.66 1.66 0 00-2.087 1.072l-2.987 9.26-9.612-.02a1.66 1.66 0 00-1.095 3.002l7.883 5.704-3.025 9.25.004.002a1.664 1.664 0 00.236 1.487c.54.74 1.573.903 2.312.364l7.864-5.737 7.762 5.66a1.658 1.658 0 002.655-1.778l-3.026-9.248 7.884-5.704-.003-.003a1.648 1.648 0 00.685-1.343 1.661 1.661 0 00-1.023-1.53 1.656 1.656 0 00-.634-.126l-9.732.02-2.985-9.248zm.2 11.412l-1.783-5.518-1.782 5.518a1.656 1.656 0 01-1.578 1.15l-5.804-.012 4.701 3.401a1.661 1.661 0 01.604 1.859l-1.804 5.518 4.663-3.4a1.657 1.657 0 011.977-.02l4.689 3.42-1.785-5.456a1.662 1.662 0 01.585-1.92l4.701-3.402-5.725.012a1.656 1.656 0 01-1.66-1.15zM58.327 1.59l2.985 9.247 9.732-.02a1.656 1.656 0 01.972 3l.002.002-7.883 5.704 3.026 9.25a1.659 1.659 0 01-2.655 1.778l-7.762-5.661-7.864 5.737a1.653 1.653 0 01-2.548-1.852l-.005-.002 3.026-9.25-7.883-5.704a1.661 1.661 0 011.095-3.001l9.611.019 2.99-9.26a1.658 1.658 0 013.16.013zm.2 11.412l-1.783-5.518-1.782 5.518a1.657 1.657 0 01-1.579 1.15l-5.8-.012 4.7 3.401a1.661 1.661 0 01.604 1.859l-1.804 5.518 4.663-3.4a1.657 1.657 0 011.977-.02l4.69 3.42-1.786-5.456a1.66 1.66 0 01.585-1.92l4.7-3.402-5.724.012a1.66 1.66 0 01-1.662-1.15zm-10.89 58.31l.033 21.543H69.31c.722 0 1.383-.242 1.892-.658a2.98 2.98 0 001.027-1.716l3.215-15.66c.095-.46.09-.902-.012-1.314a2.982 2.982 0 00-.601-1.171 2.935 2.935 0 00-1.02-.818c-.378-.18-.81-.27-1.288-.27H61.157a1.662 1.662 0 01-1.52-2.337l.36-1.026c1.802-5.13 2.757-7.85.252-10.177a1.955 1.955 0 00-.812-.47 1.978 1.978 0 00-.946-.01c-.34.073-.63.209-.856.397-.228.19-.413.447-.544.765l-4.466 10.69c-.898 2.148-3.058 2.3-4.988 2.231zm-3.28 22.979l-.038-24.553c-.325-1.749-3.272-2.153-3.272.93v22.931c0 2.783 2.566 3.228 3.31.692zm24.952 1.892a6.29 6.29 0 003.986-1.412 6.3 6.3 0 002.184-3.624l3.215-15.66c.195-.95.18-1.882-.038-2.77a6.281 6.281 0 00-1.25-2.473 6.268 6.268 0 00-2.177-1.727 6.245 6.245 0 00-2.704-.597H63.5c2.017-5.794 2.878-9.052-.989-12.643a5.283 5.283 0 00-2.203-1.239 5.242 5.242 0 00-2.52-.061 5.26 5.26 0 00-2.271 1.1 5.271 5.271 0 00-1.495 2.04l-4.466 10.69c-.11.263-1.305.218-2.331.165-2.082-4.667-9.509-3.667-9.509 2.698V93.6c0 6.153 7.066 7.762 9.464 2.582h22.128zm-12.565-52.29c-9.445 0-17.998 3.828-24.187 10.02-6.19 6.19-10.02 14.742-10.02 24.186 0 9.445 3.83 17.998 10.02 24.187 6.191 6.191 14.742 10.019 24.187 10.019s17.998-3.828 24.186-10.019c6.192-6.191 10.02-14.742 10.02-24.187s-3.828-17.998-10.02-24.187c-6.188-6.19-14.741-10.02-24.186-10.02zm21.834 12.372C72.99 50.678 65.27 47.22 56.744 47.22s-16.246 3.456-21.836 9.045c-5.587 5.588-9.045 13.307-9.045 21.834s3.455 16.246 9.045 21.836c5.587 5.588 13.309 9.045 21.836 9.045s16.246-3.455 21.834-9.045c5.587-5.587 9.045-13.309 9.045-21.836s-3.456-16.246-9.045-21.834zm4.912-4.912c-6.844-6.845-16.3-11.077-26.746-11.077-10.445 0-19.901 4.232-26.746 11.077-6.845 6.844-11.077 16.301-11.077 26.746s4.232 19.902 11.077 26.746c6.845 6.845 16.3 11.077 26.746 11.077 10.445 0 19.902-4.232 26.746-11.077 6.845-6.844 11.077-16.3 11.077-26.746 0-10.445-4.232-19.902-11.077-26.746z" fill="#23C7EF"/></svg><svg fill="none" viewBox="0 0 93 93" id="happy-people" xmlns="http://www.w3.org/2000/svg"><path d="M49.27 7.68h1.727a1.367 1.367 0 000-2.735H49.27a1.367 1.367 0 100 2.735zm-7.262 0h1.725a1.367 1.367 0 000-2.735h-1.725a1.367 1.367 0 100 2.735zm4.494 4.497a1.366 1.366 0 001.367-1.368V9.086a1.367 1.367 0 10-2.734 0v1.726a1.366 1.366 0 001.367 1.365zm0-7.264a1.367 1.367 0 001.367-1.367V1.82a1.367 1.367 0 10-2.734 0v1.726a1.368 1.368 0 001.367 1.367zM15.077 69.051h-1.726a1.367 1.367 0 100 2.734h1.726a1.367 1.367 0 100-2.734zm-7.262 0H6.089a1.367 1.367 0 100 2.734h1.726a1.367 1.367 0 100-2.734zm2.768 2.77a1.367 1.367 0 00-1.368 1.367v1.725a1.367 1.367 0 102.735 0v-1.726a1.367 1.367 0 00-1.367-1.367zm0-7.266a1.367 1.367 0 00-1.368 1.367v1.726a1.367 1.367 0 102.735 0v-1.725a1.366 1.366 0 00-1.367-1.368zm76.332 4.496h-1.726a1.367 1.367 0 100 2.734h1.726a1.367 1.367 0 100-2.734zm-7.262 0h-1.726a1.367 1.367 0 100 2.734h1.726a1.367 1.367 0 100-2.734zm2.769 2.77a1.366 1.366 0 00-1.367 1.367v1.725a1.367 1.367 0 102.734 0v-1.726a1.367 1.367 0 00-1.367-1.367zm0-7.266a1.367 1.367 0 00-1.367 1.367v1.726a1.367 1.367 0 102.734 0v-1.725a1.365 1.365 0 00-1.367-1.368z" fill="#343434"/><path d="M88.787 1.421a7.227 7.227 0 00-9.872 2.646L61.077 34.964a14.647 14.647 0 00-29.15 0L14.09 4.067a7.227 7.227 0 10-12.517 7.226l24.03 41.62v37.97a1.367 1.367 0 102.735 0V52.55c0-.24-.063-.475-.183-.683L7.543 16.164l7.78-4.493 18.184 31.477a14.625 14.625 0 0025.992 0L77.682 11.67l7.78 4.492L64.85 51.867c-.12.208-.183.443-.183.683v38.332a1.367 1.367 0 002.735 0V52.913l24.031-41.622a7.235 7.235 0 00-2.645-9.87zM6.175 13.795L3.941 9.926a4.492 4.492 0 117.78-4.492l2.235 3.869-7.781 4.492zM46.502 48.33a11.914 11.914 0 1111.914-11.914A11.928 11.928 0 0146.502 48.33zM89.063 9.926l-2.233 3.869-7.78-4.492 2.233-3.87a4.492 4.492 0 117.78 4.493z" fill="#343434"/></svg><svg fill="none" viewBox="0 0 131 124" id="individual-approach" xmlns="http://www.w3.org/2000/svg"><path d="M106.15 78.705a2.142 2.142 0 01-1.981-1.324 2.141 2.141 0 01-.164-.821v-.816c0-2.506-3.576-4.965-7.22-4.965h-8.767a2.142 2.142 0 01-1.516-3.66 2.143 2.143 0 011.516-.628h8.767c5.444 0 11.508 3.801 11.508 9.253v.816a2.139 2.139 0 01-.627 1.516 2.143 2.143 0 01-1.516.629zm-8.574-26.151a2.143 2.143 0 01-2.139-2.319l1.072-13.087c-.008-7.387-5.72-13.54-12.742-13.54h-10.98c-7.023 0-12.735 6.153-12.735 13.716l1.064 12.911a2.144 2.144 0 11-4.273.351L55.77 37.5c-.007-10.102 7.63-18.178 17.016-18.178h10.98c9.387 0 17.023 8.076 17.023 18.003l-1.08 13.262a2.144 2.144 0 01-2.134 1.968z" fill="#23C7EF"/><path d="M78.277 72.924c-2.542 0-5.104-.409-7.41-1.183a2.142 2.142 0 01-1.349-2.716 2.149 2.149 0 012.714-1.351c1.87.628 3.96.962 6.044.962 4.86 0 9.356-1.76 11.733-4.592 3.242-3.865 5.42-9.381 5.42-13.724v-8.641c0-1.126-.231-1.878-.685-2.229-1.616-1.259-6.75.045-11.28 1.195-4.14 1.051-8.42 2.14-12.298 2.14-4.825 0-8.074-1.736-10.019-2.93-.014.48-.023 1.077-.023 1.824v8.64c0 3.13 1.165 7.022 3.119 10.413a2.145 2.145 0 11-3.716 2.14c-2.346-4.075-3.692-8.65-3.692-12.552v-8.641c0-3.646.082-5.754 1.779-6.69 1.513-.848 2.944.063 4.205.854 1.677 1.058 4.21 2.654 8.347 2.654 3.34 0 7.358-1.022 11.242-2.009 6.278-1.593 11.694-2.972 14.969-.424 1.553 1.207 2.34 3.096 2.34 5.615v8.64c0 5.36-2.52 11.826-6.423 16.48-3.217 3.835-8.833 6.125-15.017 6.125zM97.843 99.48a2.143 2.143 0 01-.465-4.235l25.445-5.697c.944-.167 1.683-.637 2.176-1.34a3.193 3.193 0 00.535-2.402 3.235 3.235 0 00-2.055-2.466 2.145 2.145 0 111.489-4.02 7.534 7.534 0 014.79 5.745 7.442 7.442 0 01-1.249 5.605 7.455 7.455 0 01-4.848 3.082L98.314 99.43a2.192 2.192 0 01-.471.051z" fill="#23C7EF"/><path d="M68.836 111.517H52.548c-.156 0-.312-.016-.465-.05l-19.296-4.288a2.145 2.145 0 01-1.628-2.558 2.15 2.15 0 012.556-1.63l19.069 4.238h16.052a37.132 37.132 0 0023.11-8.107c.058-.047.118-.088.18-.127l31.734-20.407c.103-.066.211-.124.323-.172a3.191 3.191 0 001.726-1.754 3.218 3.218 0 00-4.237-4.168L89.815 85.628c-.259.107-.537.16-.817.16H48.26a2.143 2.143 0 01-1.838-3.247l6.433-10.72a2.144 2.144 0 011.838-1.04h8.576c3.99 0 7.35-2.737 8.305-6.433H48.962l-29.249 21.45c-.957.7-2.295.49-2.997-.461a2.147 2.147 0 01.461-2.999l29.816-21.863c.367-.27.811-.415 1.267-.415h25.729a2.145 2.145 0 012.144 2.145c0 7.093-5.771 12.864-12.865 12.864h-7.36l-3.86 6.433h36.525l31.445-12.963c3.79-1.611 8.203.178 9.819 3.986.782 1.845.8 3.884.049 5.744a7.458 7.458 0 01-3.845 4.018l-31.502 20.256a41.455 41.455 0 01-25.703 8.974z" fill="#23C7EF"/><path d="M23.198 123.651a2.152 2.152 0 01-1.74-.89L.407 93.556a2.135 2.135 0 01-.378-1.597 2.148 2.148 0 01.863-1.396l13.912-10.03a2.152 2.152 0 012.994.486l21.052 29.203a2.143 2.143 0 01-.484 2.993l-13.913 10.032a2.146 2.146 0 01-1.254.404zM5.138 92.788l18.546 25.725 10.435-7.523-18.547-25.725-10.434 7.523z" fill="#23C7EF"/><path d="M28.963 109.374a4.288 4.288 0 11-8.577 0 4.288 4.288 0 018.577 0zm49.314-96.485a2.143 2.143 0 01-2.144-2.144V2.168a2.142 2.142 0 012.965-1.98 2.142 2.142 0 011.323 1.98v8.577a2.143 2.143 0 01-2.144 2.144zm8.576 0a2.132 2.132 0 01-1.515-.628 2.143 2.143 0 010-3.032l7.503-7.505a2.145 2.145 0 013.032 3.033l-7.504 7.503a2.134 2.134 0 01-1.516.628zm-17.152 0a2.133 2.133 0 01-1.516-.628l-6.432-6.433a2.142 2.142 0 011.516-3.66c.568 0 1.113.227 1.516.628l6.432 6.433a2.145 2.145 0 01-1.516 3.66z" fill="#23C7EF"/></svg><svg fill="none" viewBox="0 0 120 110" id="interior" xmlns="http://www.w3.org/2000/svg"><path d="M22.987 107.271c0 .552-.209 1.081-.58 1.471-.372.39-.876.61-1.402.61H2.425c-.526 0-1.03-.22-1.402-.61a2.133 2.133 0 01-.58-1.471c0-.552.208-1.081.58-1.472.372-.39.876-.609 1.401-.609h18.58c.527 0 1.03.219 1.402.609.372.391.58.92.58 1.472zm23.535-91.817c7.65 0 13.874 6.534 13.874 14.566v3.641c0 .552-.209 1.081-.58 1.472-.372.39-.877.61-1.402.61H34.63c-.526 0-1.03-.22-1.402-.61-.371-.39-.58-.92-.58-1.472V30.02c0-8.032 6.224-14.566 13.873-14.566zm-9.91 14.566v1.56h19.82v-1.56c0-5.737-4.446-10.404-9.91-10.404s-9.91 4.667-9.91 10.404zm-19.695 71.008c.26 0 .519-.054.76-.158.24-.105.459-.259.643-.452.184-.194.33-.424.429-.676.1-.253.15-.524.15-.797l-.104-81.329c-.01-7.23 5.561-13.086 12.448-13.086h.85c3.973 0 7.615 1.922 9.991 5.273.318.432.784.716 1.3.791a1.912 1.912 0 001.454-.392 2.1 2.1 0 00.775-1.35c.08-.54-.046-1.09-.349-1.534-3.086-4.352-8.01-6.95-13.172-6.95h-.849c-9.08 0-16.424 7.72-16.412 17.254l.104 81.328c.001.552.21 1.08.582 1.47.371.389.875.608 1.4.608zm93.523-28.351V59.109c0-6.144-4.761-11.142-10.613-11.142H45.74c-5.852 0-10.613 4.998-10.613 11.142v4.984c0 .552.209 1.081.58 1.472.372.39.877.61 1.402.61.526 0 1.03-.22 1.402-.61.371-.39.58-.92.58-1.472V59.11c0-3.849 2.983-6.98 6.649-6.98h25.31v23.409c0 .552.208 1.081.58 1.471.372.39.876.61 1.402.61.525 0 1.03-.22 1.401-.61.372-.39.58-.92.58-1.471v-23.41h24.815c3.666 0 6.649 3.132 6.649 6.981v13.623c-4.451.504-7.928 4.47-7.928 9.275v1.854c0 .552.209 1.081.58 1.472.372.39.876.61 1.402.61.526 0 1.03-.22 1.401-.61.372-.39.581-.92.581-1.472v-1.854c0-2.85 2.208-5.169 4.922-5.169h3.038c2.714 0 4.922 2.32 4.922 5.169v18.015c0 2.85-2.208 5.168-4.922 5.168h-7.96c0-13.619.01-12.78-.017-13.005.151-1.27-.795-2.341-1.965-2.341H56.184c-.525 0-1.03.22-1.401.61-.372.39-.58.919-.58 1.47 0 .553.208 1.082.58 1.472.371.39.876.61 1.401.61h42.364v13.265c0 .552.209 1.081.58 1.471.372.391.876.61 1.402.61h9.942c4.9 0 8.886-4.186 8.886-9.33V82.007c0-5.078-3.909-9.33-8.918-9.33zM90.373 105.19H35.589c-2.714 0-4.922-2.319-4.922-5.168V82.007c0-2.85 2.208-5.169 4.922-5.169h3.038c2.714 0 4.923 2.32 4.923 5.169v11.738c0 .552.209 1.081.58 1.472.372.39.876.61 1.402.61.525 0 1.03-.22 1.401-.61.372-.39.58-.92.58-1.472V82.007c0-5.145-3.986-9.33-8.886-9.33h-3.038c-4.9 0-8.886 4.185-8.886 9.33v18.015c0 5.144 3.986 9.33 8.887 9.33h54.783c.525 0 1.03-.219 1.401-.61.372-.39.58-.919.58-1.471s-.208-1.081-.58-1.472a1.936 1.936 0 00-1.401-.609z" fill="#fff"/></svg><svg fill="none" viewBox="0 0 67 44" id="message" xmlns="http://www.w3.org/2000/svg"><path d="M62.169.676H4.83a4.862 4.862 0 00-3.414 1.402A4.763 4.763 0 000 5.458v33.436a4.763 4.763 0 001.417 3.38 4.863 4.863 0 003.414 1.402h57.337a4.863 4.863 0 003.415-1.402A4.763 4.763 0 0067 38.894V5.458a4.763 4.763 0 00-1.417-3.38A4.862 4.862 0 0062.17.676zm-19.341 20.79L64.563 4.15c.225.4.343.85.343 1.309v33.436c0 .425-.102.845-.298 1.224l-21.78-18.652zm19.34-18.718c.236 0 .471.032.699.093l-22.31 17.774-1.976 1.575a8.099 8.099 0 01-5.08 1.787 8.1 8.1 0 01-5.08-1.787L4.134 2.84c.227-.06.462-.091.697-.092h57.337zM2.392 40.118a2.666 2.666 0 01-.298-1.224V5.458c0-.458.117-.909.342-1.31l21.736 17.318-21.78 18.651zm2.44 1.485c-.281 0-.56-.042-.827-.126l21.825-18.69 1.277 1.018a10.194 10.194 0 006.393 2.249c2.328 0 4.586-.794 6.392-2.249l1.277-1.018 21.827 18.69a2.754 2.754 0 01-.827.127H4.831z" fill="#000"/></svg><svg fill="none" viewBox="0 0 25 30" id="passport" xmlns="http://www.w3.org/2000/svg"><path d="M22.717.338H1.45A1.45 1.45 0 000 1.788v26.1a1.45 1.45 0 001.45 1.45h21.267a1.45 1.45 0 001.45-1.45v-26.1a1.45 1.45 0 00-1.45-1.45zm.483 27.55a.483.483 0 01-.483.483H1.45a.484.484 0 01-.483-.483V15.321H23.2v12.567zm0-13.533H.967V1.788a.483.483 0 01.483-.483h21.267a.483.483 0 01.483.483v12.567z" fill="#fff"/><path d="M3.384 27.405h7.733a1.45 1.45 0 001.45-1.45v-8.217a1.45 1.45 0 00-1.45-1.45H3.384a1.45 1.45 0 00-1.45 1.45v8.217a1.45 1.45 0 001.45 1.45zm1.485-.967a2.865 2.865 0 011.392-2.15 2.363 2.363 0 001.979 0 2.865 2.865 0 011.391 2.15H4.87zm2.381-5.174c.338.239.744.36 1.157.346.098 0 .196-.006.293-.017v.495a1.45 1.45 0 11-2.9 0v-.497a2.037 2.037 0 001.45-.327zm-1.45-.65a1.45 1.45 0 012.895 0c-.338.048-.833.052-1.015-.313a.504.504 0 00-.865 0c-.18.365-.676.362-1.012.312H5.8zm-2.9-2.876a.483.483 0 01.484-.483h7.733a.483.483 0 01.483.483v8.217a.483.483 0 01-.483.483H10.6a3.959 3.959 0 00-1.538-2.769c.387-.436.602-.998.604-1.58v-1.45a2.417 2.417 0 00-4.833 0v1.45c.002.582.216 1.144.603 1.58A3.957 3.957 0 003.9 26.44h-.516a.483.483 0 01-.484-.484v-8.217zm11.6 1.45h6.767a.967.967 0 00.967-.966v-.967a.967.967 0 00-.967-.967H14.5a.967.967 0 00-.966.967v.967a.967.967 0 00.966.966zm0-1.933h6.767v.967H14.5v-.967zm6.767 2.9H14.5a.483.483 0 100 .967h6.767a.483.483 0 100-.967zm0 1.933H14.5a.483.483 0 100 .967h6.767a.484.484 0 000-.967zm-4.833 1.934H14.5a.484.484 0 000 .966h1.934a.483.483 0 100-.966zm-4.35-21.75A5.317 5.317 0 1017.4 7.588a5.323 5.323 0 00-5.316-5.316zm3.233 2.416h-1.193a6.19 6.19 0 00-.435-1.139c.623.25 1.18.64 1.628 1.14zm-3.233-1.45c.329 0 .74.527 1.041 1.45h-2.083c.3-.923.712-1.45 1.042-1.45zM8.192 5.655h1.635c-.08.48-.13.964-.15 1.45H7.762c.057-.505.203-.996.43-1.45zm0 3.867a4.307 4.307 0 01-.43-1.45h1.915c.02.486.07.97.15 1.45H8.192zm.658.966h1.193c.107.394.252.775.434 1.14a4.362 4.362 0 01-1.626-1.14zm1.193-5.8H8.851c.447-.5 1.004-.89 1.626-1.139a6.189 6.189 0 00-.434 1.14zm2.04 7.25c-.329 0-.74-.526-1.041-1.45h2.083c-.3.924-.712 1.45-1.041 1.45zm1.282-2.416h-2.562c-.087-.48-.14-.964-.159-1.45h2.88c-.018.486-.071.97-.16 1.45zm-2.722-2.417c.019-.486.072-.971.16-1.45h2.56c.088.479.141.964.16 1.45h-2.88zm3.045 4.523c.182-.365.328-.746.435-1.14h1.193c-.448.5-1.004.89-1.626 1.14h-.002zm2.287-2.106H14.34c.08-.48.13-.964.15-1.45h1.914a4.318 4.318 0 01-.43 1.45zm.43-2.417h-1.914c-.02-.486-.07-.97-.15-1.45h1.634c.228.454.373.945.43 1.45z" fill="#fff"/></svg><svg fill="none" viewBox="0 0 38 38" id="phone" xmlns="http://www.w3.org/2000/svg"><path fill-rule="evenodd" clip-rule="evenodd" d="M28.37 36.907c-3.535-.886-10.772-3.383-17.333-9.944C4.476 20.402 1.979 13.165 1.093 9.63c-.509-2.032.408-3.992 1.962-5.103l4.075-2.91a5.25 5.25 0 017.368 1.284l2.565 3.705a3.5 3.5 0 01-.844 4.84l-2.045 1.461c.31 1.184 1.272 3.616 4.288 6.631 3.015 3.015 5.446 3.978 6.63 4.288l1.461-2.046a3.5 3.5 0 014.84-.843l3.706 2.565a5.25 5.25 0 011.284 7.368l-2.91 4.075c-1.11 1.554-3.071 2.47-5.103 1.962zM13.512 24.488c5.966 5.966 12.55 8.232 15.709 9.023.461.116 1.02-.063 1.403-.6l2.91-4.075a1.75 1.75 0 00-.427-2.456L29.4 23.815l-1.567 2.195c-.641.897-1.826 1.6-3.206 1.303-1.722-.372-4.905-1.563-8.641-5.3-3.737-3.736-4.928-6.92-5.3-8.642-.297-1.38.406-2.564 1.303-3.205l2.195-1.568-2.565-3.705a1.75 1.75 0 00-2.456-.428l-4.075 2.91c-.537.384-.716.942-.6 1.404.79 3.158 3.056 9.743 9.023 15.709z" fill="#23C7EF"/></svg><svg fill="none" viewBox="0 0 48 48" id="phone-icon" xmlns="http://www.w3.org/2000/svg"><path d="M0 24C0 10.745 10.745 0 24 0s24 10.745 24 24-10.745 24-24 24S0 37.255 0 24z" fill="#6FD454"/><path d="M16.971 12.049c.292-.024.542.046.703.314.363.587.728 1.175 1.073 1.777.4.696.767 1.411 1.158 2.114.1.188.24.36.358.541.108.172.21.348.31.52.207.389.197.78-.11 1.092-.435.445-.915.86-1.378 1.283-.387.355-.789.695-1.166 1.058-.294.284-.37.64-.171 1.014.306.573.61 1.146.945 1.707 1.244 2.074 2.834 3.837 4.842 5.197.774.526 1.58 1.009 2.392 1.469.767.433 1.066.36 1.66-.304.554-.614 1.088-1.239 1.64-1.858a3.93 3.93 0 01.445-.41c.313-.264.656-.293 1.016-.112.1.049.209.093.297.157.955.683 2.023 1.165 3.032 1.746.54.31 1.067.644 1.599.962.286.17.401.417.382.757-.054.958-.213 1.898-.77 2.706-.232.336-.562.63-.895.867-.924.647-1.955 1.046-3.052 1.29-.997.224-1.991.143-2.946-.156-1.844-.568-3.661-1.22-5.334-2.207-1.518-.898-2.9-1.983-4.178-3.195-1.619-1.541-3.064-3.221-4.232-5.134-.762-1.241-1.305-2.578-1.798-3.943-.298-.822-.592-1.638-.724-2.51-.152-.987-.047-1.937.269-2.873.284-.845.64-1.653 1.175-2.375.422-.56.948-.972 1.629-1.156.546-.145 1.097-.26 1.646-.387a.217.217 0 00.183.049z" fill="#fff"/></svg><svg fill="none" viewBox="0 0 29 30" id="rub" xmlns="http://www.w3.org/2000/svg"><path d="M17.747 17.628h-3.993v-1.074h1.49a4.295 4.295 0 100-8.59h-2.397a.906.906 0 00-.906.907v5.87h-1.575a.906.906 0 100 1.813h1.575v1.074h-1.575a.907.907 0 000 1.812h1.575v1.373a.907.907 0 001.813 0V19.44h3.993a.907.907 0 000-1.813zm-3.993-7.851h1.49a2.482 2.482 0 010 4.964h-1.49V9.777z" fill="#fff"/><path d="M14.5 29.34a14.5 14.5 0 118.525-26.232.905.905 0 11-1.066 1.466 12.672 12.672 0 103.709 4.238.906.906 0 011.595-.86A14.505 14.505 0 0114.5 29.34z" fill="#fff"/></svg><svg fill="none" viewBox="0 0 94 125" id="smartphone" xmlns="http://www.w3.org/2000/svg"><path d="M84.705 29.204a2.079 2.079 0 01-1.584-3.43l5.445-6.37A4.153 4.153 0 1082.256 14l-3.715 4.348a2.078 2.078 0 01-3.159-2.702l3.716-4.343a8.229 8.229 0 015.673-2.885 8.217 8.217 0 016.048 1.974 8.264 8.264 0 012.884 5.665 8.254 8.254 0 01-1.974 6.052l-5.44 6.371a2.086 2.086 0 01-1.584.724zM45.79 124.689a2.074 2.074 0 01-2.076-1.986 2.08 2.08 0 01.218-1.023l4.156-8.312a2.08 2.08 0 011.858-1.147c9.497 0 12.153-3.043 14.867-7.345a2.085 2.085 0 012.808-.552 2.08 2.08 0 01.708 2.772c-3.553 5.627-7.556 8.99-17.09 9.264l-3.591 7.182a2.072 2.072 0 01-1.858 1.147zm22.86-24.937H47.863a2.078 2.078 0 010-4.156h20.785a6.242 6.242 0 006.235-6.235v-5.166a2.078 2.078 0 014.156 0v5.166c0 5.727-4.663 10.39-10.39 10.39z" fill="#fff"/><path d="M22.93 51.955a2.078 2.078 0 01-2.078-2.078V10.393c0-5.728 4.664-10.391 10.391-10.391H68.65c5.728 0 10.391 4.663 10.391 10.39v26.95a2.078 2.078 0 11-4.156 0v-26.95a6.242 6.242 0 00-6.235-6.234H31.243a6.242 6.242 0 00-6.234 6.235v39.484a2.078 2.078 0 01-2.078 2.078z" fill="#fff"/><path d="M78.263 52.454a8.29 8.29 0 01-5.4-1.999 8.264 8.264 0 01-2.884-5.665 8.255 8.255 0 011.975-6.051l.66-.844c2.96-3.47 8.425-3.849 11.775-.977a8.264 8.264 0 012.885 5.665 8.255 8.255 0 01-1.975 6.052l-.66.843a8.344 8.344 0 01-6.376 2.976zm.719-13.379a4.14 4.14 0 00-3.159 1.455l-.66.848c-.778.91-1.127 1.986-1.04 3.092a4.12 4.12 0 001.442 2.83 4.257 4.257 0 005.856-.453l.661-.843c.778-.91 1.127-1.987 1.04-3.093a4.12 4.12 0 00-1.443-2.83 4.111 4.111 0 00-2.697-1.006z" fill="#fff"/><path d="M77.25 69.166a8.289 8.289 0 01-5.4-1.999 8.264 8.264 0 01-2.884-5.665 8.254 8.254 0 011.974-6.051l3.159-3.645c2.847-3.334 8.362-3.778 11.712-.902a8.264 8.264 0 012.884 5.665 8.254 8.254 0 01-1.974 6.051l-3.159 3.645a8.3 8.3 0 01-6.313 2.901zm3.158-16.105a4.14 4.14 0 00-3.159 1.455l-3.159 3.649a4.116 4.116 0 00-.976 3.017 4.12 4.12 0 001.442 2.83 4.256 4.256 0 005.856-.452l3.159-3.645a4.116 4.116 0 00.976-3.018 4.12 4.12 0 00-1.442-2.83 4.111 4.111 0 00-2.697-1.006z" fill="#fff"/><path d="M77.053 86.273a8.29 8.29 0 01-5.399-1.999 8.264 8.264 0 01-2.884-5.665 8.254 8.254 0 011.974-6.051l3.159-3.645c2.843-3.334 8.362-3.774 11.712-.902a8.264 8.264 0 012.885 5.665 8.254 8.254 0 01-1.975 6.051l-3.158 3.645a8.3 8.3 0 01-6.314 2.901zm3.159-16.105a4.138 4.138 0 00-3.159 1.454l-3.159 3.65a4.115 4.115 0 00-.976 3.017 4.12 4.12 0 001.442 2.83c1.683 1.451 4.43 1.218 5.856-.453l3.159-3.645a4.114 4.114 0 00.977-3.017 4.12 4.12 0 00-1.443-2.83 4.11 4.11 0 00-2.697-1.006zM2.149 124.689a2.074 2.074 0 01-2.076-1.986c-.015-.354.06-.706.218-1.023l10.017-20.029-4.942-15.71c-1.139-3.633-1.405-9.385-.607-13.105l3.629-16.903-.004-20.45a2.078 2.078 0 012.078-2.077l.59-.03c1.945-.124 6.513-.423 9.95 2.798 2.66 2.49 4.007 6.496 4.007 11.907v18.591c3.462 2.569 14.97 12.42 16.421 30.844a2.083 2.083 0 01-4.144.328c-1.504-19.127-15.336-28.25-15.478-28.337a2.104 2.104 0 01-.956-1.754V48.081c0-4.214-.906-7.198-2.693-8.873-1.67-1.571-3.973-1.783-5.619-1.746l-.004 18.69c0 .146-.017.292-.046.437L8.816 73.71c-.644 3.013-.412 8.042.511 10.985l5.196 16.513a2.077 2.077 0 01-.125 1.554l-10.39 20.781a2.081 2.081 0 01-1.859 1.147zM56.181 12.471H43.71a2.078 2.078 0 110-4.157h12.47a2.078 2.078 0 010 4.157zm-6.193 49.875c-10.312 0-18.703-8.392-18.703-18.703a18.724 18.724 0 0126.837-16.85 2.078 2.078 0 11-1.804 3.74 14.563 14.563 0 00-20.877 13.11 14.547 14.547 0 0029.073.835 2.077 2.077 0 114.148.233 18.703 18.703 0 01-18.674 17.635z" fill="#fff"/><path d="M49.988 50.708c-.551 0-1.08-.218-1.471-.607l-6.235-6.234a2.078 2.078 0 012.939-2.939l4.763 4.763 13.075-13.075a2.078 2.078 0 012.939 2.938L51.45 50.101a2.052 2.052 0 01-1.463.607zm26.974 73.981H27.087a2.077 2.077 0 010-4.156h49.875a2.08 2.08 0 012.078 2.078 2.076 2.076 0 01-2.078 2.078zm8.728 0h-.42a2.077 2.077 0 110-4.156h.42a2.08 2.08 0 012.078 2.078 2.076 2.076 0 01-2.078 2.078z" fill="#fff"/></svg><svg fill="none" viewBox="0 0 448 449" id="square" xmlns="http://www.w3.org/2000/svg"><path d="M402.584 0H130.48a8.003 8.003 0 00-8 8 8.001 8.001 0 008 8h272.104A29.44 29.44 0 01432 45.408v272.12a8 8 0 1016 0V45.408A45.463 45.463 0 00402.584 0zm5.656 359.52a7.995 7.995 0 00-8.783-1.847 7.995 7.995 0 00-4.321 10.562 7.996 7.996 0 001.792 2.597l23.76 23.76H82.824a29.438 29.438 0 01-29.408-29.416V27.312l23.752 23.76a8.001 8.001 0 1011.312-11.32L51.072 2.344a8 8 0 00-11.312 0L2.344 39.752a8 8 0 0011.312 11.312l23.76-23.76v337.872a45.455 45.455 0 0045.408 45.416h337.864l-23.76 23.752a7.996 7.996 0 00-2.442 5.685 8.014 8.014 0 002.343 5.726 8.006 8.006 0 0011.411-.099l37.416-37.408a8 8 0 000-11.312L408.24 359.52z" fill="#343434"/><path d="M142.368 129.96a7.998 7.998 0 00-8 8v155.328a8 8 0 0016 0V177.56a25.92 25.92 0 1151.84 0v115.728a8 8 0 0016 0V177.56a25.921 25.921 0 0151.832 0v115.728a8 8 0 0016 0V177.56a41.821 41.821 0 00-54.946-39.802 41.819 41.819 0 00-20.894 15.378 41.36 41.36 0 00-28.128-17.106 41.367 41.367 0 00-31.712 8.842v-6.912a8 8 0 00-7.992-8zm227.824 3.752a31.136 31.136 0 005.384-17.472 31.474 31.474 0 00-53.726-22.254 31.474 31.474 0 00-9.218 22.254 8 8 0 0016 0 15.472 15.472 0 1130.944 0 14.977 14.977 0 01-2.44 8.24l-37.424 40.16a11.117 11.117 0 002.008 16.89 11.118 11.118 0 006.096 1.83h39.016a7.997 7.997 0 008-8 8 8 0 00-8-8h-27.696l28.664-30.488c.208-.224 2.4-3.16 2.4-3.16h-.008z" fill="#343434"/></svg><svg fill="none" viewBox="0 0 115 116" id="stages" xmlns="http://www.w3.org/2000/svg"><path d="M21.942 44.222c11.531 0 21.014-8.94 21.878-20.254h17.707l-3.87 3.87 2.387 2.387 7.945-7.945-7.945-7.945-2.387 2.387 3.87 3.87H43.82C42.956 9.28 33.473.338 21.942.338 9.843.338 0 10.18 0 22.28c0 12.1 9.843 21.942 21.942 21.942zm0-40.508c10.238 0 18.567 8.329 18.567 18.566 0 10.238-8.329 18.567-18.567 18.567-10.237 0-18.566-8.33-18.566-18.567S11.705 3.714 21.942 3.714zM10.69 88.332h2.813v10.127H10.69v3.376h22.505v-3.376h-2.813V88.332h2.813v-3.376H10.69v3.376zm12.94 0h3.376v10.127H23.63V88.332zm-6.751 0h3.375v10.127H16.88V88.332z" fill="#23C7EF"/><path d="M91.37 44.158v3.103a2.816 2.816 0 01-2.814 2.813H26.443a6.196 6.196 0 00-6.189 6.189v5.602l-3.87-3.87-2.387 2.387 7.945 7.944 7.945-7.944-2.387-2.387-3.87 3.87v-5.602a2.816 2.816 0 012.813-2.814h62.113a6.196 6.196 0 006.19-6.188v-3.103C106.058 43.293 115 33.811 115 22.28 115 10.181 105.157.338 93.057.338c-12.099 0-21.942 9.843-21.942 21.942 0 11.531 8.941 21.013 20.255 21.878zm1.687-40.444c10.238 0 18.567 8.329 18.567 18.566 0 10.238-8.329 18.567-18.567 18.567-10.237 0-18.566-8.33-18.566-18.567S82.82 3.714 93.057 3.714zm0 67.74c-12.099 0-21.942 9.843-21.942 21.942s9.843 21.942 21.942 21.942c12.1 0 21.943-9.843 21.943-21.942 0-12.1-9.843-21.943-21.943-21.943zm0 40.508c-10.237 0-18.566-8.329-18.566-18.566 0-10.238 8.329-18.567 18.566-18.567 10.238 0 18.567 8.33 18.567 18.567s-8.329 18.566-18.567 18.566z" fill="#23C7EF"/><path d="M100.934 27.344h-2.813V17.217h2.813V13.84H85.181v3.376h2.813v10.127h-2.813v3.375h15.753v-3.375zm-6.188 0H91.37V17.217h3.376v10.127zm-67.628 0H23.63V17.217h3.488V13.84H16.766v3.376h3.488v10.127h-3.488v3.375h10.352v-3.375zm54.237 60.988h2.813v10.127h-2.813v3.376h23.405v-3.376h-6.173l3.545-10.127h2.628v-3.376H81.355v3.376zm17.2 0l-2.572 7.349-2.572-7.349h5.144zm-11.011 0h2.29l3.545 10.127h-5.835V88.332zm-29.887-.494l3.87 3.87H43.82c-.864-11.314-10.347-20.255-21.878-20.255C9.843 71.453 0 81.296 0 93.396c0 12.099 9.843 21.942 21.942 21.942 11.531 0 21.014-8.941 21.878-20.254h17.707l-3.87 3.87 2.387 2.387 7.945-7.946-7.945-7.945-2.387 2.388zm-35.715 24.124c-10.237 0-18.566-8.329-18.566-18.566 0-10.238 8.329-18.567 18.566-18.567 10.238 0 18.567 8.33 18.567 18.567s-8.329 18.566-18.567 18.566z" fill="#23C7EF"/></svg><svg viewBox="0 0 512 512" id="telegram-icon" xmlns="http://www.w3.org/2000/svg"><circle cx="255.997" cy="256" r="255.997" fill="#41b4e6" data-original="#41b4e6"/><path d="M512 256.003c0-6.238-.235-12.419-.673-18.546L405.228 131.36 106.772 248.759l114.191 114.192 1.498 5.392 1.939-1.955.008.008-1.947 1.947L348.778 494.66C444.298 457.5 512 364.663 512 256.003z" fill="#41b4e6" data-original="#0091c8"/><path d="M231.138 293.3l115.691 87.347 58.399-249.287-298.457 117.399 90.817 30.081 165.743-111.176z" fill="#fff" data-original="#ffffff"/><path d="M197.588 278.84l24.873 89.504 8.677-75.044 132.193-125.636z" fill="#d2d2d7" data-original="#d2d2d7"/><path d="M268.738 321.688l-46.277 46.656 8.677-75.044z" fill="#b9b9be" data-original="#b9b9be"/></svg><svg fill="none" viewBox="0 0 29 30" id="time" xmlns="http://www.w3.org/2000/svg"><path d="M25.965 21.9a1.133 1.133 0 00-1.585.233c-.207.277-.425.546-.653.805a1.133 1.133 0 001.697 1.5c.271-.306.53-.624.774-.953a1.133 1.133 0 00-.233-1.585zm1.894-5.313a1.133 1.133 0 00-1.348.866c-.073.338-.16.672-.263 1.002a1.133 1.133 0 102.165.669c.12-.392.225-.788.312-1.189a1.133 1.133 0 00-.866-1.348zm-7.347 8.941c-.302.169-.61.324-.925.466a1.133 1.133 0 10.932 2.065c.374-.169.74-.353 1.098-.553a1.133 1.133 0 10-1.105-1.978zM13.368 5.776v8.593l-4.154 4.154a1.133 1.133 0 001.602 1.602l4.486-4.486c.212-.212.331-.5.331-.8V5.775a1.133 1.133 0 00-2.265 0z" fill="#fff"/><path d="M27.867 2.774c-.626 0-1.133.507-1.133 1.132v3.146A14.534 14.534 0 0014.5.338 14.405 14.405 0 004.247 4.585 14.405 14.405 0 000 14.838c0 3.873 1.508 7.514 4.247 10.253A14.405 14.405 0 0014.5 29.338l.028-.001.029.001c.408 0 .82-.017 1.225-.051a1.133 1.133 0 10-.189-2.258c-.342.029-.69.044-1.036.044H14.5c-6.746 0-12.234-5.489-12.234-12.235 0-6.746 5.488-12.234 12.234-12.234 4.348 0 8.346 2.317 10.532 6.004h-3.115a1.133 1.133 0 100 2.265h3.458a3.602 3.602 0 001.987-.595A3.624 3.624 0 0029 7.248V3.906c0-.625-.507-1.132-1.133-1.132z" fill="#fff"/></svg><svg fill="none" viewBox="0 0 60 77" id="todo-list" xmlns="http://www.w3.org/2000/svg"><path d="M12.943 33.18l6.94-8.348a1.114 1.114 0 00-1.712-1.424l-5.949 7.157-1.3-2.112a1.113 1.113 0 10-1.896 1.167l2.113 3.432c.4.649 1.318.714 1.804.128zM9.026 44.315l2.113 3.433c.4.648 1.318.713 1.804.128l6.94-8.35a1.114 1.114 0 00-1.712-1.422l-5.949 7.156-1.3-2.112a1.11 1.11 0 00-1.532-.364 1.114 1.114 0 00-.364 1.531zm0 14.795l2.113 3.432c.4.649 1.318.713 1.804.128l6.94-8.349a1.114 1.114 0 00-1.712-1.423l-5.949 7.156-1.3-2.112a1.112 1.112 0 00-2.053.759c.025.145.078.284.157.409z" fill="#000"/><path d="M58.262 63.525a1.114 1.114 0 00-1.114 1.113v8.104c0 .941-.765 1.707-1.707 1.707H3.934a1.709 1.709 0 01-1.707-1.707v-48.79a1.113 1.113 0 10-2.227 0v48.79a3.938 3.938 0 003.934 3.934H55.44a3.938 3.938 0 003.934-3.934v-8.104a1.113 1.113 0 00-1.113-1.113zm-2.82-54.27h-5.447V4.653A3.983 3.983 0 0046.017.676a3.983 3.983 0 00-3.978 3.978v4.6h-8.373v-4.6A3.983 3.983 0 0029.688.676a3.983 3.983 0 00-3.979 3.978v4.6h-8.373v-4.6A3.983 3.983 0 0013.357.676 3.983 3.983 0 009.38 4.654v4.6H3.934A3.938 3.938 0 000 13.188v5.569a1.113 1.113 0 102.227 0v-5.57c0-.94.765-1.706 1.707-1.706h5.445v1.767a3.983 3.983 0 003.978 3.979 3.983 3.983 0 003.979-3.979v-1.767h8.373v1.767a3.983 3.983 0 003.979 3.979 3.983 3.983 0 003.978-3.979v-1.767h8.373v1.767a3.983 3.983 0 003.979 3.979 3.983 3.983 0 003.978-3.979v-1.767h5.445c.942 0 1.707.765 1.707 1.707v46.255a1.113 1.113 0 102.227 0V13.188a3.938 3.938 0 00-3.934-3.934zm-40.333 3.993c0 .966-.786 1.752-1.751 1.752a1.754 1.754 0 01-1.752-1.752V4.654c0-.966.786-1.752 1.752-1.752.965 0 1.751.786 1.751 1.752v8.594zm16.33 0c0 .966-.786 1.752-1.752 1.752a1.754 1.754 0 01-1.751-1.752V4.654c0-.966.786-1.752 1.752-1.752.965 0 1.751.786 1.751 1.752v8.594zm16.33 0c0 .966-.786 1.752-1.751 1.752a1.754 1.754 0 01-1.752-1.752V4.654c0-.966.786-1.752 1.752-1.752.965 0 1.751.786 1.751 1.752v8.594z" fill="#000"/><path d="M24.602 34.102h23.453a3.492 3.492 0 003.488-3.489 3.492 3.492 0 00-3.488-3.488H24.602a3.492 3.492 0 00-3.489 3.488 3.492 3.492 0 003.489 3.489zm0-4.75h23.453c.695 0 1.261.566 1.261 1.261 0 .696-.566 1.262-1.261 1.262H24.602a1.263 1.263 0 01-1.262-1.262c0-.695.566-1.261 1.262-1.261zm0 19.476h23.453a3.492 3.492 0 003.488-3.488 3.492 3.492 0 00-3.488-3.488H24.602a3.492 3.492 0 00-3.489 3.488 3.492 3.492 0 003.489 3.488zm0-4.75h23.453c.695 0 1.261.566 1.261 1.262 0 .696-.566 1.262-1.261 1.262H24.602a1.263 1.263 0 01-1.262-1.262c0-.696.566-1.262 1.262-1.262zm0 19.477h23.453a3.492 3.492 0 003.488-3.488 3.492 3.492 0 00-3.488-3.488H24.602a3.492 3.492 0 00-3.489 3.488 3.492 3.492 0 003.489 3.488zm0-4.75h23.453c.695 0 1.261.566 1.261 1.262 0 .696-.566 1.262-1.261 1.262H24.602a1.263 1.263 0 01-1.262-1.262c0-.696.566-1.262 1.262-1.262z" fill="#000"/></svg><svg fill="none" viewBox="0 0 126 126" id="tools" xmlns="http://www.w3.org/2000/svg"><path d="M119.352 4.384h-18.821a6.048 6.048 0 00-5.947 4.951L91.87 24.07a15.205 15.205 0 00-7.18-5.18A15.828 15.828 0 0074.389 8.736l-1.83-3.662A8.498 8.498 0 0064.916.352a8.49 8.49 0 00-7.439 4.344A15.83 15.83 0 0047.13 14.952a13.57 13.57 0 00-7.893 9.24l-.19.762a15.228 15.228 0 00-9.995 11.38l-.063.308h-.363a4.036 4.036 0 00-4.032 4.032v4.032a4.036 4.036 0 004.032 4.033h.192l1.647 16.47a8.044 8.044 0 00-4.75 3.691h-1.599L13.344 29.4a6.6 6.6 0 00-6.355-4.855A6.596 6.596 0 00.4 31.134v.885c0 .567.073 1.133.216 1.677L9.88 68.9H8.465a4.036 4.036 0 00-4.032 4.032v4.032a4.036 4.036 0 004.032 4.033h.089l1.754 38.582a6.04 6.04 0 006.042 5.773h96.954a4.037 4.037 0 004.032-4.033V105.19a4.037 4.037 0 00-4.032-4.032h-12.097V85.029a4.036 4.036 0 00-4.032-4.032h-3.62l11.341-60.484h14.456a6.055 6.055 0 006.048-6.049v-4.032a6.055 6.055 0 00-6.048-6.048zM41.211 28.517l1.175-.294.762-3.053a9.552 9.552 0 016.277-6.778l1.05-.349.268-1.075a11.818 11.818 0 018.613-8.612l.9-.224.628-1.256a4.483 4.483 0 014.032-2.492c1.72 0 3.265.956 4.033 2.492l2.645 5.286.9.224a11.814 11.814 0 018.612 8.613l.294 1.175 1.176.293a11.176 11.176 0 018.087 8.163l-1.11 6.012H33.139a11.158 11.158 0 018.073-8.125zM28.626 40.674h60.186l-.742 4.032H28.626v-4.032zm58.7 8.065l-5.942 32.258H68.95a4.036 4.036 0 00-4.032 4.032v16.129h-9.071l.917-20.161h.089a4.036 4.036 0 004.032-4.032v-4.033a4.036 4.036 0 00-4.032-4.032h-17.25a8.053 8.053 0 00-5.095-3.798L32.87 48.739h54.456zM40.723 72.932h16.129v4.032h-17.25a7.982 7.982 0 001.121-4.032zM32.658 68.9a4.036 4.036 0 014.033 4.032 4.036 4.036 0 01-4.033 4.032 4.036 4.036 0 01-4.032-4.032 4.036 4.036 0 014.032-4.032zM4.518 32.666a2.48 2.48 0 01-.085-.647v-.885a2.558 2.558 0 015.022-.674L19.939 68.9h-5.887L4.517 32.666zm3.947 40.266h16.129c0 1.476.427 2.841 1.12 4.032H8.465v-4.032zm21.962 8.065c-1.355 11.728-7.258 22.224-16.498 29.441l-1.337-29.441h17.835zM16.35 121.319a2.01 2.01 0 01-2.014-1.923l-.188-4.117a47.54 47.54 0 0020.335-34.282h18.244l-.923 20.306a4.031 4.031 0 00-3.017 3.887v16.129H16.35zm36.47-16.129h28.226v16.129H52.82V105.19zm60.486 16.129H85.078V105.19h28.226l.002 16.129zm-16.131-20.161H68.949V85.029h28.226v16.129zm-7.722-20.161h-3.97l11.141-60.484h4.17L89.453 80.997zm31.915-66.532a2.018 2.018 0 01-2.016 2.016H97.368l1.182-6.416a2.016 2.016 0 011.981-1.649h18.821c1.111 0 2.016.903 2.016 2.016v4.032z" fill="#fff"/><path d="M56.852 20.513h4.032a4.036 4.036 0 014.033-4.033v-4.032c-4.448 0-8.065 3.617-8.065 8.065zM44.755 32.609h4.033a4.036 4.036 0 014.032-4.032v-4.032c-4.448 0-8.065 3.617-8.065 8.064zm28.226-8.064v4.032a4.036 4.036 0 014.032 4.032h4.033c0-4.447-3.617-8.064-8.065-8.064z" fill="#fff"/></svg><svg viewBox="0 0 48 49" fill="none" id="viber-icon" xmlns="http://www.w3.org/2000/svg"><path d="M24 .5c13.255 0 24 10.745 24 24s-10.745 24-24 24-24-10.745-24-24S10.745.5 24 .5z" fill="#7F4DA0"/><path d="M30.394 21.458c-.117-.948-.408-1.692-.926-2.352-.672-.85-1.531-1.358-2.803-1.66-.828-.2-1.163-.178-1.463.096-.28.257-.334.77-.12 1.104.15.242.323.328.804.423.641.118 1.084.27 1.487.501.856.494 1.254 1.267 1.297 2.518.02.588.07.769.276.977.38.38 1.057.307 1.344-.149.105-.172.122-.247.133-.646a6.349 6.349 0 00-.03-.812z" fill="#fff"/><path d="M33.744 22.528c-.169-2.906-1.305-5.243-3.339-6.888-1.146-.924-2.53-1.56-4.05-1.868-.555-.111-1.58-.2-1.755-.15-.166.048-.4.228-.505.39-.11.176-.135.569-.04.796.151.38.434.515 1.227.584 1.222.107 2.483.536 3.435 1.172a7.204 7.204 0 012.511 2.877c.483 1 .78 2.44.772 3.73-.003.466.07.73.257.922a.862.862 0 001.06.164c.404-.212.498-.585.427-1.73zM37.452 33.716a3.185 3.185 0 00-.284-.569c-.597-.901-3.804-3.41-5.405-4.231-.914-.47-1.591-.627-2.093-.48-.54.152-.824.404-1.73 1.528-.364.45-.738.873-.838.94-.246.17-.729.308-1.07.308-.791-.005-2.226-.517-3.33-1.191-.857-.522-1.956-1.457-2.8-2.382-.994-1.086-1.671-2.044-2.207-3.126-.691-1.39-.866-2.239-.578-2.86.072-.157.166-.323.209-.375.043-.047.488-.413.98-.811.967-.769 1.123-.944 1.303-1.47.227-.67.166-1.353-.185-2.04-.27-.523-.976-1.661-1.487-2.396-.677-.968-2.364-3.036-2.7-3.316-.606-.494-1.383-.58-2.24-.247-.905.351-2.6 1.717-3.326 2.67-.653.864-.904 1.476-.942 2.283-.033.664.024.939.374 1.788 2.743 6.66 6.835 11.978 12.458 16.2 2.936 2.206 5.982 3.886 9.141 5.034 1.843.668 2.643.702 3.586.151.398-.237 1.383-1.247 1.933-1.983.909-1.224 1.245-1.788 1.34-2.239.066-.308.014-.844-.109-1.186z" fill="#fff"/><path d="M37.156 23.195c-.061-1.643-.338-2.992-.915-4.494-.57-1.479-1.146-2.444-2.235-3.748-1.029-1.224-1.828-1.922-3.096-2.7-1.77-1.083-3.923-1.8-6.335-2.102-.823-.105-1.01-.098-1.262.07-.489.32-.482 1.116.008 1.43.163.1.307.136.965.223 1.01.136 1.66.264 2.431.474 3.023.826 5.348 2.516 6.902 5.023 1.3 2.09 1.84 4.18 1.764 6.85-.027.902-.008 1.061.13 1.278.265.404.961.484 1.319.149.222-.205.264-.358.308-1.13.02-.404.025-.998.016-1.323z" fill="#fff"/></svg><svg viewBox="0 0 48 49" fill="none" id="whatsapp-icon" xmlns="http://www.w3.org/2000/svg"><path d="M24 48.5c13.255 0 24-10.745 24-24S37.255.5 24 .5 0 11.245 0 24.5s10.745 24 24 24z" fill="#25D366"/><path fill-rule="evenodd" clip-rule="evenodd" d="M24.791 37.852h-.005c-2.389 0-4.736-.6-6.82-1.737L10.4 38.1l2.025-7.395a14.246 14.246 0 01-1.905-7.135c.003-7.868 6.405-14.27 14.271-14.27a14.18 14.18 0 0110.096 4.185 14.185 14.185 0 014.175 10.096c-.003 7.867-6.402 14.268-14.27 14.271zm-6.475-4.32l.433.257a11.843 11.843 0 006.038 1.653h.005c6.537 0 11.858-5.32 11.86-11.861a11.79 11.79 0 00-3.47-8.392 11.78 11.78 0 00-8.386-3.479c-6.543 0-11.864 5.321-11.866 11.861a11.833 11.833 0 001.813 6.313l.282.448-1.198 4.377 4.49-1.177zm13.177-6.878c.248.12.417.201.488.321.09.149.09.863-.208 1.696-.297.833-1.722 1.593-2.407 1.695-.614.092-1.392.13-2.246-.141a20.485 20.485 0 01-2.033-.751c-3.342-1.444-5.602-4.684-6.029-5.296-.03-.043-.05-.073-.062-.088l-.003-.004c-.189-.252-1.453-1.94-1.453-3.685 0-1.643.807-2.504 1.178-2.9l.07-.075a1.31 1.31 0 01.95-.446c.239 0 .477.002.684.012.026.002.053.002.08.001.208 0 .467-.002.723.612l.393.955c.307.747.646 1.573.706 1.692.09.179.149.387.03.625l-.05.102c-.09.182-.155.316-.307.493-.06.07-.121.144-.183.22-.122.149-.245.298-.352.404-.178.178-.364.371-.156.728s.924 1.525 1.984 2.47a9.21 9.21 0 002.632 1.664c.098.043.177.077.235.106.357.179.565.149.773-.089.208-.238.891-1.041 1.129-1.398s.475-.298.802-.179c.327.12 2.08.982 2.437 1.16l.195.096z" fill="#FDFDFD"/></svg><svg fill="none" viewBox="0 0 117 127" id="worker" xmlns="http://www.w3.org/2000/svg"><path d="M44.005 14.522c.398-.324.81-.63 1.237-.924a2.25 2.25 0 012.55 3.705c-.332.23-.655.47-.968.723a2.25 2.25 0 01-2.82-3.504zm-6.811 10.456a18.538 18.538 0 012.4-5.57 2.25 2.25 0 013.792 2.422 14.14 14.14 0 00-1.823 4.224 2.25 2.25 0 01-4.37-1.076zm-2.32 92.788h-6.75a2.25 2.25 0 110-4.5h6.75a2.25 2.25 0 110 4.5zm54 0h-6.75a2.25 2.25 0 110-4.5h6.75a2.25 2.25 0 110 4.5z" fill="#23C7EF"/><path d="M110.087 93.063c-5.847-7.41-29.938-15.174-35.003-16.744-.2-3.172-.57-6.33-1.111-9.462a27.284 27.284 0 007.61-13.72 13.445 13.445 0 003.65-4.097 11.083 11.083 0 001.272-8.676 5.913 5.913 0 003.848-5.502 6.151 6.151 0 00-3.452-5.555A26.483 26.483 0 0068.712 4.611 4.837 4.837 0 0064.001.764H53.39a4.822 4.822 0 00-4.643 3.631 26.789 26.789 0 00-18.82 25.018 6.18 6.18 0 00-3.28 5.452 5.904 5.904 0 003.758 5.467 12.344 12.344 0 00.292 6.406 12.581 12.581 0 005.128 6.66 29.567 29.567 0 007.412 13.664 86.84 86.84 0 00-1.085 9.272C36.911 77.9 13.376 85.24 7.553 92.42 2.288 98.909.407 121.895.209 124.493a2.25 2.25 0 004.486.338c.506-6.671 2.64-24.998 6.352-29.579 1.935-2.385 6.919-5.04 12.577-7.479v18.743h-2.25a2.25 2.25 0 00-2.25 2.25v15.896a2.25 2.25 0 104.5 0v-13.644h69.75v13.644a2.25 2.25 0 104.5 0v-15.894a2.25 2.25 0 00-2.25-2.25h-2.25v-18.63c5.922 2.599 11.192 5.445 13.179 7.965 3.557 4.507 5.355 22.421 5.748 28.944a2.253 2.253 0 002.378 2.066 2.248 2.248 0 002.113-2.336c-.15-2.542-1.638-25.042-6.705-31.462v-.002zm-51.599.135h.032c5.845 0 13.18-8.6 16.076-12.316.9.285 1.935.623 3.028.99v24.644h-38.25V81.919c1.101-.359 2.205-.707 3.312-1.046 2.835 3.719 9.997 12.296 15.802 12.325zm12.26-14.71C67.036 83.16 61.472 88.7 58.524 88.7h-.013c-2.925-.015-8.402-5.598-12.015-10.264.128-2.659.4-5.309.814-7.938 6.824 4.284 16.027 3.224 22.54-.574.455 2.836.755 5.695.898 8.564zM32.3 33.308c2.214-.1 2.16-2.376 2.145-3.123l-.016-.923A22.163 22.163 0 0149.016 9.08l1.88 14.674a2.251 2.251 0 004.465-.578L53.08 5.543a.33.33 0 01.31-.277h10.61a.33.33 0 01.312.277l-2.281 17.633a2.252 2.252 0 004.466.578L68.366 9.3A21.873 21.873 0 0182.4 29.264c0 .545-.02 1.085-.063 1.62a2.253 2.253 0 002.29 2.426c.6-.146 1.222.841 1.222 1.552 0 1.049-1.14 1.472-1.813 1.555-8.45.955-16.948 1.44-25.452 1.454a234.584 234.584 0 01-25.623-1.454c-.675-.083-1.814-.506-1.814-1.555a1.554 1.554 0 011.152-1.554zm7.73 18.225a2.252 2.252 0 00-1.153-1.553 8.28 8.28 0 01-3.895-4.617 7.897 7.897 0 01-.153-4.21c8.33.89 17.793 1.218 23.756 1.218 5.863 0 15.187-.327 23.472-1.204a6.719 6.719 0 01-.727 5.632 9.143 9.143 0 01-3.004 3.123 2.247 2.247 0 00-.999 1.52 21.381 21.381 0 01-10.496 15.03c-.358.187-8.856 4.532-16.148.777a23.688 23.688 0 01-10.654-15.716zm-11.906 54.985v-20.59a196.946 196.946 0 016.75-2.493v23.083h-6.75zm60.75 0h-6.75V83.435c2.16.777 4.45 1.64 6.75 2.56v20.523z" fill="#23C7EF"/><path d="M58.472 35.078c-4.734 0-11.542-.427-18.211-1.138a2.25 2.25 0 01.477-4.473c6.52.695 13.149 1.11 17.734 1.111 5.427 0 12.747-.575 17.791-1.111a2.25 2.25 0 01.472 4.473c-2.497.268-11.209 1.136-18.263 1.139z" fill="#23C7EF"/></svg><svg fill="none" viewBox="0 0 105 93" id="workers" xmlns="http://www.w3.org/2000/svg"><path d="M97.625 41.098v-1.224a2.672 2.672 0 00-2.668-2.668h-3.874c-.425 0-.826.102-1.182.28a27.27 27.27 0 00-1.068-.246v-1.988c1.865-1.78 3.49-4.196 4-7.038h.032a4.094 4.094 0 004.09-4.09c0-.684-.172-1.357-.501-1.958l.513-.003a1.29 1.29 0 001.279-1.3l-.042-5.29a1.289 1.289 0 00-1.29-1.28h-.009l-.69.005c-.416-3.006-1.399-5.598-2.905-7.61a11.963 11.963 0 00-2.433-2.435l.34-1.439-2.51-.593-.16.679c-1.53-.67-3.263-1.06-5.19-1.168V.518H80.78v1.214c-1.926.108-3.66.498-5.19 1.168l-.16-.679-2.51.593.34 1.44c-.924.69-1.744 1.51-2.433 2.434a13.668 13.668 0 00-1.517 2.607l.225-.952a4.076 4.076 0 00-3.026-4.898 4.077 4.077 0 00-4.628 2.244c-1.637-.61-3.408-1.032-5.31-1.27v-.271A4.076 4.076 0 0052.5.076a4.076 4.076 0 00-4.073 4.072v.271c-1.9.238-3.672.661-5.308 1.27a4.042 4.042 0 00-1.552-1.747 4.045 4.045 0 00-3.076-.497 4.044 4.044 0 00-2.528 1.822 4.044 4.044 0 00-.498 3.076l.225.953c-.425-.95-.93-1.824-1.517-2.608a11.962 11.962 0 00-2.434-2.435l.34-1.439-2.509-.593-.16.679c-1.531-.67-3.264-1.06-5.19-1.168V.518H21.64v1.214c-1.926.108-3.659.498-5.19 1.168l-.16-.679-2.509.593.34 1.44c-.924.69-1.744 1.51-2.434 2.434-1.506 2.012-2.488 4.604-2.904 7.61l-.69-.005h-.01a1.29 1.29 0 00-1.29 1.28l-.041 5.291a1.289 1.289 0 001.28 1.3l.512.002c-.33.6-.502 1.274-.5 1.96a4.094 4.094 0 004.088 4.088h.033c.51 2.842 2.135 5.258 4 7.039v1.987c-.357.075-.713.157-1.068.246a2.649 2.649 0 00-1.183-.28h-3.873a2.672 2.672 0 00-2.669 2.668v1.224C3.04 44.434.686 49.483.686 55.842a1.29 1.29 0 001.289 1.29h39.442c.235.233.471.462.711.683l.025 3.211c-.946.183-1.885.397-2.816.641a3.561 3.561 0 00-1.862-.527h-6.454a3.592 3.592 0 00-3.588 3.589v2.47a27.175 27.175 0 00-3.192 2.76c-5.279 5.364-7.955 12.557-7.955 21.38a1.289 1.289 0 001.29 1.29h69.847a1.29 1.29 0 001.29-1.29c0-8.823-2.677-16.016-7.955-21.38a27.167 27.167 0 00-3.192-2.76v-2.47a3.591 3.591 0 00-3.588-3.588h-6.454a3.56 3.56 0 00-1.862.526 44.38 44.38 0 00-2.748-.627v-3.265c.226-.208.447-.424.667-.644h39.443a1.29 1.29 0 001.289-1.289c0-6.359-2.355-11.408-6.688-14.744zm-22.637 23.63v18.269H55.563c.13-.08.258-.165.384-.256l8.128-5.873a5.903 5.903 0 002.439-4.77v-7.37c0-.557.453-1.01 1.01-1.01h6.454c.557 0 1.01.453 1.01 1.01zM30.01 90.05v-4.475h44.977v4.475H30.01zm1.01-26.331h6.454c.557 0 1.01.452 1.01 1.01v7.368a5.901 5.901 0 002.438 4.771l8.129 5.874c.125.09.254.175.385.255H30.01v-18.27c0-.556.453-1.009 1.01-1.009zm32.915 1.01v7.368a3.317 3.317 0 01-1.371 2.681l-8.128 5.874a3.303 3.303 0 01-3.875 0l-8.128-5.874a3.317 3.317 0 01-1.371-2.68v-7.37c-.001-.273-.034-.546-.096-.812.46-.11.922-.21 1.386-.304.931 4.201 5.166 7.4 10.183 7.4 5.04 0 9.252-3.183 10.184-7.385.43.087.867.183 1.313.288a3.576 3.576 0 00-.097.813zM27.433 90.05h-8.55c.301-9.363 3.875-15.522 8.55-19.572V90.05zm50.133-19.572c4.674 4.05 8.248 10.21 8.548 19.572h-8.548V70.478zm-17.23-8.604c-.001 3.616-3.5 6.559-7.8 6.559-4.242 0-7.74-2.903-7.798-6.46l-.016-2.059c.555.393 1.127.761 1.714 1.104a12.066 12.066 0 006.063 1.63 12.07 12.07 0 006.063-1.63c.609-.355 1.2-.737 1.774-1.146v2.002zM3.3 54.553C3.557 50 5.18 46.795 7.373 44.54v10.013H3.3zm6.743-14.77h3.873c.05 0 .09.04.09.09v4.422a4.059 4.059 0 001.677 3.281l3.43 2.478h-9.16v-10.18c0-.05.04-.091.09-.091zm.58-15.66c0-.668.438-1.236 1.041-1.434l.264 2.93a1.513 1.513 0 01-1.305-1.495zm4.164-17.063l1.066 4.51 2.51-.593-1.303-5.51c1.252-.623 2.767-1.032 4.582-1.152v7.582h2.578V4.316c1.817.12 3.33.53 4.584 1.152l-1.304 5.51 2.51.592 1.066-4.51c1.61 1.537 2.54 3.537 3.056 5.554a21.104 21.104 0 00-1.074 1.686l-21.673.002c.395-2.548 1.34-5.274 3.402-7.241zm23.189.69a1.482 1.482 0 01.182-1.129 1.483 1.483 0 01.927-.669 1.485 1.485 0 011.128.183 1.483 1.483 0 01.669.927l2.17 9.178a1.482 1.482 0 01-.183 1.128 1.486 1.486 0 01-.928.67 1.486 1.486 0 01-1.128-.184c-.34-.21-.576-.539-.668-.926l-2.17-9.179zm14.524-5.097a1.495 1.495 0 011.494 1.494V17.55a1.495 1.495 0 01-2.55 1.056c-.28-.28-.437-.66-.438-1.056V4.15A1.495 1.495 0 0152.5 2.653zm0 18.967a4.076 4.076 0 004.072-4.072V7.017c1.713.235 3.252.633 4.634 1.162l-1.766 7.47a4.076 4.076 0 003.963 5.008 4.08 4.08 0 003.962-3.135l.967-4.093c2.561 3.299 3.788 7.378 4.323 11.177-9.507.01-30.807.01-40.31 0 .534-3.799 1.762-7.879 4.323-11.177l.967 4.092a4.046 4.046 0 001.824 2.528 4.043 4.043 0 003.075.497 4.047 4.047 0 002.528-1.822 4.045 4.045 0 00.498-3.076l-1.766-7.47c1.382-.53 2.92-.926 4.634-1.161v10.532a4.076 4.076 0 004.072 4.072zM65.571 5.913a1.494 1.494 0 011.454 1.837l-2.17 9.178a1.495 1.495 0 01-2.724.441 1.495 1.495 0 01-.183-1.128l2.17-9.178a1.497 1.497 0 011.453-1.15zm8.352 1.148l1.067 4.51 2.508-.593-1.302-5.51c1.253-.623 2.767-1.032 4.583-1.152v7.582h2.578V4.316c1.817.12 3.33.53 4.583 1.152l-1.303 5.51 2.51.594 1.066-4.511c2.061 1.967 3.007 4.694 3.401 7.241-1.375 0-20.62-.002-21.673-.001a21.113 21.113 0 00-1.074-1.687c.517-2.017 1.446-4.017 3.056-5.553zm21.124 32.813v10.18h-9.16l3.43-2.477a4.057 4.057 0 001.676-3.281v-4.422c0-.05.04-.09.09-.09h3.874c.05 0 .09.04.09.09zm-78.335-.115c1.036 2.145 3.433 3.651 6.218 3.651 2.398 0 4.507-1.117 5.71-2.795.112.652.33 1.268.638 1.83v1.851a1.472 1.472 0 01-.61 1.191l-4.877 3.524a1.468 1.468 0 01-1.721 0l-4.877-3.524a1.474 1.474 0 01-.61-1.19v-4.423c0-.03-.003-.058-.004-.087l.133-.028zm2.032-2.366v-.14c.097.06.194.117.29.173a7.757 7.757 0 003.896 1.047 7.762 7.762 0 004.187-1.22v.14c0 1.897-1.879 3.44-4.187 3.44-2.307 0-4.185-1.544-4.186-3.44zM9.363 16.878c1.76.005 21.784-.002 22.42 0-.37.885-.692 1.79-.965 2.711-.291 0-19.692.008-21.477.003l.022-2.714zm86.294 2.714c-1.71.005-21.076-.003-21.476-.002a26.985 26.985 0 00-.966-2.712c.682-.002 20.69.004 22.42 0l.022 2.714zM88.42 39.787c-.001.03-.005.058-.005.087v4.422a1.475 1.475 0 01-.609 1.191l-4.877 3.524a1.468 1.468 0 01-1.721 0l-4.878-3.524a1.472 1.472 0 01-.608-1.19v-1.852c.312-.57.527-1.19.638-1.83 1.201 1.679 3.31 2.795 5.708 2.795 2.786 0 5.183-1.506 6.219-3.651l.132.028zM57.267 58.789a9.513 9.513 0 01-9.537 0c-4.5-2.614-9.822-8.134-10.007-15.087-.007-.258-.649-7.587-.649-7.587 7.343.004 29.354.007 30.848.007 0 0-.642 7.321-.649 7.58-.184 6.953-5.506 12.474-10.006 15.087zM75.96 27.18l.054 6.359c-7.277.014-40.065 0-47.031-.004l.054-6.355c7.265.017 39.65.017 46.923 0zM31.128 39.595a3.382 3.382 0 013.368-3.377l.607 6.754h-.597a3.382 3.382 0 01-3.378-3.377zm39.374-3.377a3.381 3.381 0 013.369 3.377 3.382 3.382 0 01-3.378 3.378h-.597l.606-6.755zM30.178 47.577a4.054 4.054 0 001.63-2.675c.835.427 1.76.65 2.698.649h.789c.212 1.55.63 3.064 1.243 4.504H26.75l3.429-2.478zm39.526-2.026h.79a5.92 5.92 0 002.697-.649 4.06 4.06 0 001.63 2.675l3.428 2.478h-9.788a17.62 17.62 0 001.243-4.505zm12.364-4.719c-2.308 0-4.186-1.543-4.187-3.44v-.14a7.757 7.757 0 004.187 1.22c1.348.001 2.695-.348 3.897-1.046.096-.056.192-.113.29-.173v.14c-.001 1.896-1.879 3.44-4.187 3.44zm2.603-5.635a5.192 5.192 0 01-5.205 0 11.821 11.821 0 01-.864-.556l-.074-8.767a1.29 1.29 0 00-1.289-1.278h-.01c-.297.002-.984.005-1.982.006a34.612 34.612 0 00-.414-2.436l15.96.003s-.37 4.243-.374 4.407c-.099 3.706-2.958 7-5.748 8.62zm8.4-9.577l.264-2.93a1.513 1.513 0 011.042 1.435 1.512 1.512 0 01-1.305 1.495zm-78.491.955a684.67 684.67 0 00-.375-4.406l15.96-.003c-.167.807-.305 1.62-.413 2.436-.661 0-1.322-.003-1.982-.006a1.286 1.286 0 00-1.3 1.278l-.074 8.768c-.286.201-.575.387-.863.555a5.193 5.193 0 01-5.205 0c-2.79-1.62-5.65-4.915-5.748-8.622zM9.952 52.632h27.907c.401.663.837 1.304 1.305 1.921H9.952v-1.92zm55.882 1.921a22.4 22.4 0 001.306-1.92h27.907v1.92H65.834zm31.791 0V44.54c2.195 2.256 3.817 5.46 4.075 10.013h-4.075z" fill="#343434"/></svg><svg fill="none" viewBox="0 0 95 50" id="yandex" xmlns="http://www.w3.org/2000/svg"><g clip-path="url(#bcclip0_239_13853)"><path d="M22.401.37L17.676 8.89v19.26l4.725-2.964L31.852 30l-1.09-10.74 7.27-8.149L27.127 8.89 22.4.37z" fill="#FEDC51"/><path d="M11.829 18.091H8.51l-3.13-.794c-1.48-.678-2.618-1.716-3.414-3.113C1.17 12.773.773 11.023.773 8.934c0-1.913.29-3.534.87-4.864.59-1.33 1.424-2.34 2.501-3.032C5.231.346 6.514 0 7.994 0h6.546v29.63h-2.711V3.215H7.993c-1.498 0-2.627.516-3.385 1.547-.75 1.031-1.124 2.422-1.124 4.172 0 1.14.164 2.157.492 3.052.337.896.833 1.601 1.489 2.117.655.515 1.47.773 2.444.773h3.92v3.215zM8.4 18.063L2.88 29.63H0l5.38-12.332 3.021.765z" fill="#F33"/><path d="M87.783 20.325L85.228 30H84l2.556-9.675h1.227zM91.42 28.895c-.517 0-.979-.098-1.387-.296a2.484 2.484 0 01-.972-.82 2.2 2.2 0 01-.38-1.192h1.395c.026.331.166.602.422.813.255.208.563.312.921.312.282 0 .532-.066.752-.198.22-.131.392-.314.519-.548.126-.234.188-.501.186-.801a1.64 1.64 0 00-.19-.813 1.434 1.434 0 00-.53-.556 1.459 1.459 0 00-.775-.206 1.815 1.815 0 00-.701.135c-.23.092-.412.213-.546.363l-1.297-.217.414-4.167h4.6v1.223H90.44l-.229 2.143h.047a1.64 1.64 0 01.623-.438c.269-.119.563-.178.883-.178a2.407 2.407 0 012.177 1.294c.216.403.325.863.325 1.381 0 .534-.122 1.01-.364 1.429-.24.415-.575.743-1.003.982-.426.237-.92.355-1.48.355z" fill="#BEC8CF"/><path d="M57.304 22.398v2.812H41.923l-.117-2.124 9.199-14.414h2.827l-3.062 5.244-5.288 8.482h11.822zM54.638 8.671V30h-3.53V8.672h3.53zm8.54 17.93l-.015 2.52c0 .995-.249 2.02-.747 3.075-.498 1.055-1.157 1.924-1.977 2.608l-1.89-1.099c.273-.44.522-.884.747-1.333.224-.45.405-.928.542-1.435.137-.508.205-1.07.205-1.685v-2.651h3.135zm6.035.615h.293c1.347 0 2.47-.176 3.369-.527.908-.362 1.63-.86 2.168-1.495a5.769 5.769 0 001.157-2.24c.235-.86.352-1.793.352-2.799V16.48c0-.87-.093-1.631-.279-2.286-.175-.664-.43-1.216-.761-1.655-.323-.45-.698-.786-1.128-1.01a2.844 2.844 0 00-1.362-.338c-.538 0-1.021.122-1.45.367-.42.234-.777.561-1.07.981-.283.41-.503.894-.66 1.45a6.77 6.77 0 00-.219 1.758c0 .586.068 1.152.205 1.7.147.536.361 1.015.645 1.435.283.42.64.752 1.069.996.43.244.933.366 1.509.366.547 0 1.05-.102 1.509-.308a3.93 3.93 0 001.2-.864c.343-.361.611-.766.806-1.216a3.83 3.83 0 00.323-1.377l1.347.41a5.49 5.49 0 01-.468 2.198 6.85 6.85 0 01-1.275 1.963 6.247 6.247 0 01-1.89 1.406 5.194 5.194 0 01-2.329.527c-1.015 0-1.914-.19-2.695-.57a5.657 5.657 0 01-1.933-1.583 6.977 6.977 0 01-1.143-2.285 9.515 9.515 0 01-.38-2.71c0-1.025.155-1.987.468-2.886a7.144 7.144 0 011.362-2.373 6.121 6.121 0 012.168-1.611c.86-.39 1.831-.586 2.915-.586 1.153 0 2.163.225 3.032.674.87.449 1.602 1.07 2.198 1.86.595.791 1.044 1.71 1.347 2.754a12.06 12.06 0 01.454 3.37v1.244c0 1.26-.112 2.476-.336 3.648a12.174 12.174 0 01-1.1 3.237 9.034 9.034 0 01-1.977 2.607c-.81.743-1.806 1.324-2.988 1.744-1.172.41-2.549.615-4.13.615h-.323v-2.915zM1.713 45.901c.213 0 .4-.027.56-.082.162-.055.297-.132.405-.232a.98.98 0 00.248-.361c.055-.141.083-.297.083-.467 0-.343-.108-.613-.323-.809-.213-.196-.537-.294-.973-.294H.84V45.9h.874zm0-2.901c.363 0 .678.042.945.126.268.083.49.203.666.357.176.152.306.336.39.553.087.218.13.459.13.723 0 .264-.046.508-.138.73-.092.22-.227.41-.406.57-.178.159-.401.283-.67.372-.264.087-.57.13-.917.13H.84v2.077H0V43h1.713zM7.063 46.2a1.27 1.27 0 00-.067-.42.929.929 0 00-.19-.334.87.87 0 00-.307-.22 1.042 1.042 0 00-.417-.078c-.323 0-.578.092-.764.278-.184.186-.3.444-.35.774h2.095zm.634 1.868c-.095.11-.204.206-.327.287a1.96 1.96 0 01-.394.192c-.14.05-.284.087-.433.11a2.755 2.755 0 01-.437.036c-.276 0-.532-.046-.768-.138a1.76 1.76 0 01-.61-.408 1.922 1.922 0 01-.403-.667 2.745 2.745 0 01-.141-.92c0-.277.043-.534.13-.773.086-.24.21-.45.37-.628.163-.178.36-.318.594-.42.234-.102.497-.153.788-.153.244 0 .469.04.674.122.207.078.386.194.535.345.15.152.267.34.35.562.087.222.13.476.13.761 0 .118-.012.198-.039.24-.026.04-.075.059-.145.059H4.948c.008.238.042.446.102.624.06.175.143.322.248.44.108.117.235.205.382.263.147.057.311.086.492.086.171 0 .318-.02.442-.059a2.195 2.195 0 00.55-.255.325.325 0 01.166-.059c.063 0 .112.024.146.07l.22.283zM12.055 44.649v3.989h-.772V46.03a2.477 2.477 0 01.031-.369 4.327 4.327 0 01-.078.157.938.938 0 01-.075.125l-1.84 2.501a.596.596 0 01-.114.134.237.237 0 01-.161.063H8.58v-3.993h.768v2.61a2.228 2.228 0 01-.031.366 1.75 1.75 0 01.153-.279l1.84-2.505a.642.642 0 01.114-.13.251.251 0 01.165-.062h.465zm-1.69-.982a.847.847 0 00.264-.035.353.353 0 00.173-.114.46.46 0 00.095-.204c.02-.086.031-.191.031-.314h.453c.053 0 .094.024.122.07.03.048.044.1.044.158a.76.76 0 01-.315.624c-.103.073-.228.13-.375.173-.144.039-.308.059-.492.059s-.349-.02-.496-.06a1.21 1.21 0 01-.37-.172.8.8 0 01-.237-.271.777.777 0 01-.078-.353c0-.058.014-.11.043-.157A.136.136 0 019.349 43h.453c0 .123.01.228.028.314a.527.527 0 00.094.204.38.38 0 00.173.114.887.887 0 00.268.035zM16.478 45.23H14.97v3.408h-.772V45.23H12.69v-.581h3.788v.58zM20.593 44.649v3.989h-.772V46.03a2.525 2.525 0 01.031-.369 4.325 4.325 0 01-.078.157.938.938 0 01-.075.125l-1.84 2.501a.596.596 0 01-.114.134.236.236 0 01-.161.063h-.465v-3.993h.768v2.61a2.206 2.206 0 01-.031.366c.052-.115.103-.208.153-.279l1.84-2.505a.645.645 0 01.114-.13.251.251 0 01.165-.062h.465zM25.036 44.649v3.989h-.772V46.8h-1.831v1.838h-.768v-3.99h.768v1.571h1.831v-1.57h.772zM28.734 45.23H26.88v3.408h-.768v-3.99h2.623v.582zM33.79 44.857c.04-.06.092-.11.158-.15a.4.4 0 01.209-.058h.602l-1.012 1.508c-.063.099-.129.18-.197.243a.7.7 0 01-.252.145.86.86 0 01.319.165c.087.07.164.164.232.279l1.02 1.649h-.531a.645.645 0 01-.323-.067.604.604 0 01-.19-.2l-.732-1.206a.602.602 0 00-.54-.298h-.413v1.775h-.768v-3.993h.768v1.704h.362c.11 0 .204-.023.28-.067a.573.573 0 00.2-.196l.808-1.233zM37.055 44.586c.294 0 .56.049.795.145.24.095.441.232.607.413a1.8 1.8 0 01.386.647c.09.252.134.534.134.848 0 .314-.045.598-.134.852a1.8 1.8 0 01-.386.648 1.672 1.672 0 01-.607.412 2.132 2.132 0 01-.795.142c-.297 0-.565-.047-.804-.142a1.719 1.719 0 01-.606-.412 1.845 1.845 0 01-.39-.648 2.556 2.556 0 01-.134-.852c0-.314.045-.596.134-.848.092-.253.222-.47.39-.647.168-.181.37-.318.606-.413.24-.096.507-.145.804-.145zm0 3.51c.378 0 .66-.127.847-.38.186-.255.28-.612.28-1.073 0-.46-.094-.818-.28-1.072-.187-.256-.47-.384-.847-.384-.383 0-.67.128-.859.385-.186.253-.28.61-.28 1.071 0 .46.094.818.28 1.072.19.254.476.38.859.38zM44.336 44.637v4h-.694v-2.535a2.518 2.518 0 01.055-.542l-1.339 2.363a.3.3 0 01-.09.106.236.236 0 01-.13.035h-.087a.249.249 0 01-.13-.035.3.3 0 01-.09-.106l-1.359-2.371a3.415 3.415 0 01.055.55v2.536h-.693v-4h.622c.053 0 .105.01.158.035.052.023.097.069.134.137l1.17 1.97c.034.063.065.13.094.2l.083.213.078-.212c.03-.07.06-.138.095-.2l1.154-1.971a.273.273 0 01.134-.138.381.381 0 01.157-.035h.623zM48.781 48.638h-.771V45.23h-1.832v3.408h-.768v-3.99h3.371v3.99zM52.007 46.867c-.312.01-.577.035-.795.075a2.137 2.137 0 00-.532.149.713.713 0 00-.295.224.472.472 0 00-.09.282c0 .1.015.186.046.26.035.07.08.129.134.176a.574.574 0 00.201.098.931.931 0 00.248.032 1.37 1.37 0 00.603-.134c.087-.044.17-.098.248-.16.079-.064.156-.136.232-.217v-.785zm-2.252-1.66c.223-.213.464-.371.724-.476.263-.104.55-.157.863-.157.228 0 .43.038.606.114a1.228 1.228 0 01.717.79c.063.185.095.39.095.616v2.544h-.343a.343.343 0 01-.173-.036.268.268 0 01-.095-.141l-.083-.35a3.582 3.582 0 01-.303.252c-.1.07-.205.132-.315.184-.108.05-.223.088-.346.114-.124.026-.26.04-.41.04-.158 0-.306-.021-.445-.063a.959.959 0 01-.603-.534 1.168 1.168 0 01-.086-.467c0-.157.042-.308.126-.452.086-.147.226-.277.417-.393a2.72 2.72 0 01.756-.282 5.704 5.704 0 011.15-.126v-.29c0-.301-.064-.526-.193-.676-.128-.149-.317-.223-.567-.223a1.258 1.258 0 00-.72.204c-.082.05-.154.095-.217.137a.327.327 0 01-.19.063.227.227 0 01-.137-.043.372.372 0 01-.09-.102l-.138-.248zM57.158 44.649v3.989h-.772V46.8h-1.83v1.838h-.769v-3.99h.768v1.571h1.831v-1.57h.772zM61.707 44.649v3.989h-.772V46.03a2.477 2.477 0 01.032-.369 4.325 4.325 0 01-.08.157.938.938 0 01-.074.125l-1.84 2.501a.598.598 0 01-.113.134.237.237 0 01-.162.063h-.465v-3.993h.768v2.61a2.25 2.25 0 01-.031.366c.052-.115.104-.208.153-.279l1.84-2.505a.643.643 0 01.114-.13.251.251 0 01.165-.062h.465zM66.253 44.649v3.989h-.772V46.03a2.477 2.477 0 01.032-.369 4.327 4.327 0 01-.08.157.938.938 0 01-.074.125l-1.84 2.501a.595.595 0 01-.113.134.237.237 0 01-.162.063h-.465v-3.993h.768v2.61a2.206 2.206 0 01-.031.366c.052-.115.104-.208.153-.279l1.84-2.505a.642.642 0 01.114-.13.251.251 0 01.165-.062h.465zM72.508 45.575V43.66h-1.075c-.213 0-.394.023-.544.07a.952.952 0 00-.366.193.756.756 0 00-.209.302 1.116 1.116 0 00-.063.385c0 .149.021.284.063.404.045.12.113.222.205.306a.985.985 0 00.367.189c.15.044.33.066.543.066h1.08zm.839 3.063h-.839v-2.403h-.72a.909.909 0 00-.194.02.659.659 0 00-.347.188c-.054.052-.11.12-.168.204l-1.17 1.692a.611.611 0 01-.213.22.591.591 0 01-.311.079h-.63l1.422-2.038c.155-.235.342-.403.563-.502a2.178 2.178 0 01-.58-.205 1.528 1.528 0 01-.413-.325 1.351 1.351 0 01-.244-.432 1.65 1.65 0 01-.079-.519c0-.24.045-.46.134-.66a1.4 1.4 0 01.39-.51c.174-.14.384-.25.63-.33.25-.078.535-.117.855-.117h1.914v5.638zM77.897 44.649v3.989h-.772V46.8h-1.832v1.838h-.768v-3.99h.768v1.571h1.832v-1.57h.772zM81.705 48.08v-2.83h-1.198c-.026.387-.061.732-.106 1.036-.044.304-.097.57-.157.8a3.988 3.988 0 01-.193.59c-.071.162-.146.297-.225.404h1.879zm1.477-.023v1.707c0 .074-.021.131-.063.173a.206.206 0 01-.158.063h-.476v-1.362h-3.27v1.142a.245.245 0 01-.05.153c-.035.045-.088.067-.162.067h-.488v-1.92h.13a.88.88 0 00.271-.043.617.617 0 00.256-.173c.084-.086.163-.208.237-.365.073-.157.14-.362.2-.616.061-.254.114-.563.158-.927.045-.366.08-.802.107-1.307h2.575v3.408h.733zM86.452 46.2c0-.152-.022-.292-.067-.42a.87.87 0 00-.496-.554 1.043 1.043 0 00-.417-.078c-.323 0-.578.092-.764.278-.184.186-.301.444-.351.774h2.095zm.634 1.868c-.094.11-.203.206-.327.287a1.958 1.958 0 01-.394.192c-.139.05-.283.087-.433.11a2.756 2.756 0 01-.437.036c-.276 0-.532-.046-.768-.138a1.762 1.762 0 01-.61-.408 1.921 1.921 0 01-.402-.667 2.746 2.746 0 01-.142-.92c0-.277.044-.534.13-.773.087-.24.21-.45.37-.628.163-.178.361-.318.595-.42.234-.102.496-.153.788-.153.244 0 .468.04.673.122.208.078.386.194.536.345.15.152.266.34.35.562.087.222.13.476.13.761 0 .118-.013.198-.04.24-.025.04-.074.059-.145.059h-2.623c.008.238.042.446.103.624.06.175.143.322.248.44.107.117.235.205.382.263.147.057.31.086.492.086.17 0 .318-.02.441-.059a2.197 2.197 0 00.552-.255.326.326 0 01.165-.059.17.17 0 01.146.07l.22.283zM90.389 44.857c.04-.06.092-.11.157-.15a.4.4 0 01.21-.058h.602l-1.012 1.508c-.063.099-.13.18-.197.243a.7.7 0 01-.252.145.86.86 0 01.319.165c.086.07.164.164.232.279l1.02 1.649h-.532a.645.645 0 01-.323-.067.605.605 0 01-.189-.2l-.732-1.206a.602.602 0 00-.54-.298h-.413v1.775h-.768v-3.993h.768v1.704h.362c.11 0 .204-.023.28-.067a.573.573 0 00.2-.196l.808-1.233zM94.752 45.395a.45.45 0 01-.07.07.157.157 0 01-.095.024.244.244 0 01-.134-.047 1.185 1.185 0 00-.173-.106 1.282 1.282 0 00-.252-.106 1.108 1.108 0 00-.363-.051 1.16 1.16 0 00-.5.102.979.979 0 00-.362.29 1.357 1.357 0 00-.217.46c-.05.18-.075.383-.075.608 0 .233.027.441.08.625.052.18.127.333.224.459a.975.975 0 00.354.283c.14.062.294.094.465.094.165 0 .302-.02.41-.06a1.41 1.41 0 00.267-.133c.071-.047.13-.09.177-.13a.219.219 0 01.146-.062.17.17 0 01.146.07l.22.283a1.46 1.46 0 01-.31.287 1.715 1.715 0 01-.363.192c-.129.05-.264.087-.406.11a2.54 2.54 0 01-.425.036 1.79 1.79 0 01-.701-.138 1.607 1.607 0 01-.563-.4 1.938 1.938 0 01-.374-.644 2.573 2.573 0 01-.138-.872c0-.295.04-.569.122-.82.084-.251.206-.467.366-.648a1.68 1.68 0 01.599-.428c.236-.105.507-.157.811-.157.286 0 .538.046.756.138.218.091.412.22.583.388l-.205.283z" fill="#000"/><path opacity=".2" d="M95 39H0v1h95v-1z" fill="#2A2A30"/></g><defs><clipPath id="bcclip0_239_13853"><path fill="#fff" d="M0 0h95v50H0z"/></clipPath></defs></svg></svg>