<?xml version="1.0" encoding="utf-8"?><svg viewBox="0 0 512 512" xmlns="http://www.w3.org/2000/svg" xmlns:xlink="http://www.w3.org/1999/xlink"><style>:root>svg{display:none}:root>svg:target{display:block}</style><svg fill="none" viewBox="0 0 48 48" id="phone-icon" xmlns="http://www.w3.org/2000/svg"><path d="M0 24C0 10.745 10.745 0 24 0s24 10.745 24 24-10.745 24-24 24S0 37.255 0 24z" fill="#6FD454"/><path d="M16.971 12.049c.292-.024.542.046.703.314.363.587.728 1.175 1.073 1.777.4.696.767 1.411 1.158 2.114.1.188.24.36.358.541.108.172.21.348.31.52.207.389.197.78-.11 1.092-.435.445-.915.86-1.378 1.283-.387.355-.789.695-1.166 1.058-.294.284-.37.64-.171 1.014.306.573.61 1.146.945 1.707 1.244 2.074 2.834 3.837 4.842 5.197.774.526 1.58 1.009 2.392 1.469.767.433 1.066.36 1.66-.304.554-.614 1.088-1.239 1.64-1.858a3.93 3.93 0 01.445-.41c.313-.264.656-.293 1.016-.112.1.049.209.093.297.157.955.683 2.023 1.165 3.032 1.746.54.31 1.067.644 1.599.962.286.17.401.417.382.757-.054.958-.213 1.898-.77 2.706-.232.336-.562.63-.895.867-.924.647-1.955 1.046-3.052 1.29-.997.224-1.991.143-2.946-.156-1.844-.568-3.661-1.22-5.334-2.207-1.518-.898-2.9-1.983-4.178-3.195-1.619-1.541-3.064-3.221-4.232-5.134-.762-1.241-1.305-2.578-1.798-3.943-.298-.822-.592-1.638-.724-2.51-.152-.987-.047-1.937.269-2.873.284-.845.64-1.653 1.175-2.375.422-.56.948-.972 1.629-1.156.546-.145 1.097-.26 1.646-.387a.217.217 0 00.183.049z" fill="#fff"/></svg><svg viewBox="0 0 512 512" id="telegram-icon" xmlns="http://www.w3.org/2000/svg"><circle cx="255.997" cy="256" r="255.997" fill="#41b4e6" data-original="#41b4e6"/><path d="M512 256.003c0-6.238-.235-12.419-.673-18.546L405.228 131.36 106.772 248.759l114.191 114.192 1.498 5.392 1.939-1.955.008.008-1.947 1.947L348.778 494.66C444.298 457.5 512 364.663 512 256.003z" fill="#41b4e6" data-original="#0091c8"/><path d="M231.138 293.3l115.691 87.347 58.399-249.287-298.457 117.399 90.817 30.081 165.743-111.176z" fill="#fff" data-original="#ffffff"/><path d="M197.588 278.84l24.873 89.504 8.677-75.044 132.193-125.636z" fill="#d2d2d7" data-original="#d2d2d7"/><path d="M268.738 321.688l-46.277 46.656 8.677-75.044z" fill="#b9b9be" data-original="#b9b9be"/></svg><svg viewBox="0 0 48 49" fill="none" id="viber-icon" xmlns="http://www.w3.org/2000/svg"><path d="M24 .5c13.255 0 24 10.745 24 24s-10.745 24-24 24-24-10.745-24-24S10.745.5 24 .5z" fill="#7F4DA0"/><path d="M30.394 21.458c-.117-.948-.408-1.692-.926-2.352-.672-.85-1.531-1.358-2.803-1.66-.828-.2-1.163-.178-1.463.096-.28.257-.334.77-.12 1.104.15.242.323.328.804.423.641.118 1.084.27 1.487.501.856.494 1.254 1.267 1.297 2.518.02.588.07.769.276.977.38.38 1.057.307 1.344-.149.105-.172.122-.247.133-.646a6.349 6.349 0 00-.03-.812z" fill="#fff"/><path d="M33.744 22.528c-.169-2.906-1.305-5.243-3.339-6.888-1.146-.924-2.53-1.56-4.05-1.868-.555-.111-1.58-.2-1.755-.15-.166.048-.4.228-.505.39-.11.176-.135.569-.04.796.151.38.434.515 1.227.584 1.222.107 2.483.536 3.435 1.172a7.204 7.204 0 012.511 2.877c.483 1 .78 2.44.772 3.73-.003.466.07.73.257.922a.862.862 0 001.06.164c.404-.212.498-.585.427-1.73zM37.452 33.716a3.185 3.185 0 00-.284-.569c-.597-.901-3.804-3.41-5.405-4.231-.914-.47-1.591-.627-2.093-.48-.54.152-.824.404-1.73 1.528-.364.45-.738.873-.838.94-.246.17-.729.308-1.07.308-.791-.005-2.226-.517-3.33-1.191-.857-.522-1.956-1.457-2.8-2.382-.994-1.086-1.671-2.044-2.207-3.126-.691-1.39-.866-2.239-.578-2.86.072-.157.166-.323.209-.375.043-.047.488-.413.98-.811.967-.769 1.123-.944 1.303-1.47.227-.67.166-1.353-.185-2.04-.27-.523-.976-1.661-1.487-2.396-.677-.968-2.364-3.036-2.7-3.316-.606-.494-1.383-.58-2.24-.247-.905.351-2.6 1.717-3.326 2.67-.653.864-.904 1.476-.942 2.283-.033.664.024.939.374 1.788 2.743 6.66 6.835 11.978 12.458 16.2 2.936 2.206 5.982 3.886 9.141 5.034 1.843.668 2.643.702 3.586.151.398-.237 1.383-1.247 1.933-1.983.909-1.224 1.245-1.788 1.34-2.239.066-.308.014-.844-.109-1.186z" fill="#fff"/><path d="M37.156 23.195c-.061-1.643-.338-2.992-.915-4.494-.57-1.479-1.146-2.444-2.235-3.748-1.029-1.224-1.828-1.922-3.096-2.7-1.77-1.083-3.923-1.8-6.335-2.102-.823-.105-1.01-.098-1.262.07-.489.32-.482 1.116.008 1.43.163.1.307.136.965.223 1.01.136 1.66.264 2.431.474 3.023.826 5.348 2.516 6.902 5.023 1.3 2.09 1.84 4.18 1.764 6.85-.027.902-.008 1.061.13 1.278.265.404.961.484 1.319.149.222-.205.264-.358.308-1.13.02-.404.025-.998.016-1.323z" fill="#fff"/></svg><svg viewBox="0 0 48 49" fill="none" id="whatsapp-icon" xmlns="http://www.w3.org/2000/svg"><path d="M24 48.5c13.255 0 24-10.745 24-24S37.255.5 24 .5 0 11.245 0 24.5s10.745 24 24 24z" fill="#25D366"/><path fill-rule="evenodd" clip-rule="evenodd" d="M24.791 37.852h-.005c-2.389 0-4.736-.6-6.82-1.737L10.4 38.1l2.025-7.395a14.246 14.246 0 01-1.905-7.135c.003-7.868 6.405-14.27 14.271-14.27a14.18 14.18 0 0110.096 4.185 14.185 14.185 0 014.175 10.096c-.003 7.867-6.402 14.268-14.27 14.271zm-6.475-4.32l.433.257a11.843 11.843 0 006.038 1.653h.005c6.537 0 11.858-5.32 11.86-11.861a11.79 11.79 0 00-3.47-8.392 11.78 11.78 0 00-8.386-3.479c-6.543 0-11.864 5.321-11.866 11.861a11.833 11.833 0 001.813 6.313l.282.448-1.198 4.377 4.49-1.177zm13.177-6.878c.248.12.417.201.488.321.09.149.09.863-.208 1.696-.297.833-1.722 1.593-2.407 1.695-.614.092-1.392.13-2.246-.141a20.485 20.485 0 01-2.033-.751c-3.342-1.444-5.602-4.684-6.029-5.296-.03-.043-.05-.073-.062-.088l-.003-.004c-.189-.252-1.453-1.94-1.453-3.685 0-1.643.807-2.504 1.178-2.9l.07-.075a1.31 1.31 0 01.95-.446c.239 0 .477.002.684.012.026.002.053.002.08.001.208 0 .467-.002.723.612l.393.955c.307.747.646 1.573.706 1.692.09.179.149.387.03.625l-.05.102c-.09.182-.155.316-.307.493-.06.07-.121.144-.183.22-.122.149-.245.298-.352.404-.178.178-.364.371-.156.728s.924 1.525 1.984 2.47a9.21 9.21 0 002.632 1.664c.098.043.177.077.235.106.357.179.565.149.773-.089.208-.238.891-1.041 1.129-1.398s.475-.298.802-.179c.327.12 2.08.982 2.437 1.16l.195.096z" fill="#FDFDFD"/></svg></svg>