<svg width="560" height="244" fill="none" xmlns="http://www.w3.org/2000/svg"><path d="M56.576 242.552l-1.414 1.414.047.047.05.044 1.317-1.505zm-.448-32.96h2v-4.067l-3.221 2.483 1.221 1.584zm-9.216 7.104l-1.221-1.584-.007.005 1.228 1.579zm-1.216.32l-.434 1.952.02.005.022.004.392-1.961zm-1.024-.704l-1.585 1.219.006.009 1.579-1.228zm-3.2-4.16l-1.664 1.109.038.057.04.053 1.586-1.219zm-.32-1.216l-1.961-.392-.02.096-.01.097 1.991.199zm.704-1.024l1.11 1.664.057-.038.055-.043-1.222-1.583zm14.592-11.264l-1.11-1.664-.057.038-.055.043 1.222 1.583zm.704-.32l.392 1.961.122-.024.119-.04-.633-1.897zm8.704.32l-1.414 1.414 1.414-1.414zM57.728 241c.026 0 .07.006.117.024.045.018.061.034.048.023l-2.634 3.01a3.7 3.7 0 002.469.943v-4zm.262.138a.52.52 0 01.114.177c.027.069.024.106.024.085h-4c0 .935.317 1.849 1.034 2.566l2.828-2.828zm.138.262v-31.808h-4V241.4h4zm-3.221-33.392l-9.216 7.104 2.442 3.168 9.216-7.104-2.442-3.168zm-9.223 7.109c-.013.01.03-.026.127-.051a.632.632 0 01.277-.011l-.784 3.922c1.068.214 2.054-.094 2.836-.702l-2.456-3.158zm.446-.053a.524.524 0 01.155.064c.025.017.01.014-.034-.044l-3.158 2.456c.515.662 1.231 1.22 2.17 1.428l.867-3.904zm.127.029l-3.2-4.16-3.17 2.438 3.2 4.16 3.17-2.438zm-3.12-4.05c-.019-.027-.011-.023-.003.008a.273.273 0 01.008.084l-3.98-.398a3.81 3.81 0 00.646 2.524l3.328-2.218zm-.024.285a.47.47 0 01-.073.165c-.042.062-.079.086-.075.083l-2.218-3.328c-.796.53-1.36 1.315-1.556 2.296l3.922.784zm-.035.167l14.592-11.264-2.444-3.166-14.592 11.264 2.444 3.166zm14.48-11.183c.026-.018.047-.03.062-.039a.293.293 0 01.024-.012l-.023.008a.541.541 0 01-.077.02l-.784-3.922c-.552.11-1.031.357-1.421.617l2.218 3.328zm.227-.087a.652.652 0 01.199-.025v-4a4.6 4.6 0 00-1.465.231l1.266 3.794zm.199-.025h6.784v-4h-6.784v4zm6.784 0a.459.459 0 01-.17-.039.486.486 0 01-.156-.099l2.828-2.828a3.48 3.48 0 00-2.502-1.034v4zm-.326-.138a.52.52 0 01-.114-.177c-.027-.069-.024-.106-.024-.085h4c0-.935-.317-1.849-1.034-2.566l-2.828 2.828zm-.138-.262v41.6h4v-41.6h-4zm0 41.6c0 .021-.003-.016.024-.085a.52.52 0 01.114-.177l2.828 2.828c.717-.717 1.034-1.631 1.034-2.566h-4zm.138-.262a.486.486 0 01.157-.099.459.459 0 01.169-.039v4a3.48 3.48 0 002.502-1.034l-2.828-2.828zm.326-.138h-7.04v4h7.04v-4zm20.257 1.36l-.762 1.849.022.009.022.009.718-1.867zm-5.44-3.648l-1.493 1.331.02.022.019.02 1.454-1.373zm-3.2-5.44l-1.901.621.008.023.008.024 1.885-.668zm-1.216-6.656l-1.999.074.001.017.001.018 1.997-.109zm-.128-3.84h-2v.061l2-.061zm0-4.352l-2-.059v.059h2zm.128-3.968l-1.999-.073v.002l1.999.071zm1.216-6.592l-1.873-.702-.006.017-.006.017 1.885.668zm3.328-5.376l-1.454-1.373 1.454 1.373zm5.44-3.584l.73 1.862.01-.004.009-.004-.749-1.854zm15.552 0l-.761 1.849.015.007.016.006.73-1.862zm8.704 8.96l-1.885.668.006.017.006.017 1.873-.702zm1.344 6.592l1.999-.071-.001-.019-.001-.019-1.997.109zm.064 3.968h-2v.029l.001.03 1.999-.059zm0 4.352l-1.999-.059-.001.03v.029h2zm-.064 3.84l1.997.109.001-.018.001-.017-1.999-.074zm-1.28 6.656l1.885.668.005-.012-1.89-.656zm-3.264 5.44l-1.473-1.353-.001.002 1.474 1.351zm-5.44 3.648l.73 1.862.01-.004.009-.004-.749-1.854zm-2.368-9.472l1.63 1.158-1.63-1.158zm1.856-6.592l-1.999-.069v.007l1.999.062zm.064-3.84l-1.999-.064-.001.032v.032h2zm0-3.968h-2v.032l.001.032 1.999-.064zm-.064-3.712l-1.999.064v.01l1.999-.074zm-1.856-6.464l1.644-1.138-1.644 1.138zm-5.44-2.56l.035-2h-.069l.034 2zm-5.504 2.56l-1.644-1.138-.01.014-.01.015 1.664 1.109zm-1.792 6.464l1.999.074v-.01l-1.999-.064zm-.128 3.712l-1.999-.064-.001.032v.032h2zm0 3.968h-2v.032l.001.032 1.999-.064zm.128 3.84l2-.062-.001-.007-1.999.069zm1.856 6.592l-1.63 1.158 1.63-1.158zm5.44 8.752c-2.895 0-5.285-.403-7.218-1.147l-1.436 3.734c2.504.963 5.405 1.413 8.654 1.413v-4zm-7.174-1.129c-1.945-.801-3.513-1.865-4.748-3.172l-2.908 2.746c1.666 1.765 3.725 3.133 6.132 4.124l1.523-3.698zm-4.71-3.13a14.219 14.219 0 01-2.807-4.777l-3.77 1.336a18.222 18.222 0 003.592 6.103l2.986-2.662zm-2.79-4.73c-.626-1.914-1.002-3.959-1.121-6.144l-3.994.218c.137 2.509.571 4.9 1.312 7.168l3.802-1.242zm-1.12-6.109a574.144 574.144 0 01-.127-3.827l-3.998.122c.043 1.411.085 2.696.128 3.853l3.998-.148zm-.126-3.766v-4.352h-4v4.352h4zm0-4.293c.042-1.448.084-2.766.127-3.956l-3.998-.142a626.135 626.135 0 00-.128 3.98l3.998.118zm.127-3.954c.078-2.16.45-4.156 1.102-5.997l-3.77-1.336c-.799 2.255-1.238 4.654-1.33 7.187l3.998.146zm1.09-5.963c.678-1.807 1.648-3.369 2.909-4.705l-2.908-2.746c-1.64 1.736-2.888 3.758-3.747 6.047l3.746 1.404zm2.909-4.705c1.228-1.3 2.785-2.338 4.716-3.095l-1.46-3.724c-2.421.949-4.49 2.301-6.164 4.073l2.908 2.746zm4.735-3.103c1.93-.779 4.267-1.198 7.059-1.198v-4c-3.182 0-6.05.477-8.557 1.49l1.498 3.708zm7.059-1.198c2.793 0 5.103.42 6.983 1.193l1.522-3.698c-2.472-1.019-5.325-1.495-8.505-1.495v4zm7.014 1.206c1.931.757 3.488 1.795 4.716 3.095l2.908-2.746c-1.674-1.772-3.743-3.124-6.164-4.073l-1.46 3.724zm4.716 3.095a13.056 13.056 0 012.833 4.671l3.77-1.336a17.028 17.028 0 00-3.695-6.081l-2.908 2.746zm2.845 4.705c.692 1.844 1.102 3.84 1.22 5.999l3.994-.218c-.138-2.534-.624-4.933-1.468-7.185l-3.746 1.404zm1.218 5.961c.042 1.167.063 2.465.063 3.897h4c0-1.47-.022-2.817-.065-4.039l-3.998.142zm.064 3.956a72.888 72.888 0 010 4.234l3.998.118c.044-1.49.044-2.98 0-4.47l-3.998.118zm-.001 4.293c0 1.388-.021 2.643-.063 3.766l3.998.148c.043-1.181.065-2.486.065-3.914h-4zm-.061 3.731c-.118 2.172-.512 4.206-1.173 6.109l3.78 1.312c.79-2.278 1.249-4.682 1.387-7.203l-3.994-.218zm-1.168 6.097a13.707 13.707 0 01-2.852 4.755l2.946 2.706a17.708 17.708 0 003.676-6.125l-3.77-1.336zm-2.853 4.757c-1.179 1.286-2.732 2.344-4.715 3.145l1.498 3.708c2.454-.991 4.528-2.365 6.165-4.151l-2.948-2.702zm-4.696 3.137c-1.886.74-4.228 1.142-7.078 1.142v4c3.209 0 6.072-.451 8.538-1.418l-1.46-3.724zm-7.078-3.178c2.945 0 5.451-.995 7.07-3.274l-3.26-2.316c-.685.963-1.805 1.59-3.81 1.59v4zm7.07-3.274c1.454-2.046 2.132-4.671 2.225-7.688l-3.998-.124c-.078 2.53-.637 4.299-1.487 5.496l3.26 2.316zm2.225-7.681c.043-1.262.065-2.565.065-3.909h-4c0 1.301-.021 2.558-.063 3.771l3.998.138zm.064-3.845a63.567 63.567 0 000-4.096l-3.998.128c.041 1.28.041 2.56 0 3.84l3.998.128zm.001-4.032c0-1.344-.022-2.606-.065-3.786l-3.998.148c.042 1.124.063 2.337.063 3.638h4zm-.065-3.776c-.094-2.914-.782-5.474-2.211-7.538l-3.288 2.276c.874 1.264 1.424 3.013 1.501 5.39l3.998-.128zm-2.211-7.538c-1.602-2.314-4.093-3.371-7.05-3.422l-.069 4c1.993.034 3.129.684 3.83 1.698l3.289-2.276zm-7.118-3.422c-2.985.051-5.506 1.098-7.114 3.422l3.288 2.276c.696-1.004 1.845-1.664 3.894-1.698l-.068-4zm-7.134 3.451c-1.373 2.059-2.033 4.608-2.127 7.509l3.998.128c.077-2.39.611-4.15 1.457-5.419l-3.328-2.218zm-2.127 7.499a787.881 787.881 0 00-.128 3.722l3.998.128c.043-1.319.085-2.554.128-3.702l-3.998-.148zm-.129 3.786v3.968h4v-3.968h-4zm.001 4.032c.043 1.325.086 2.606.128 3.845l3.998-.138a1733.12 1733.12 0 01-.128-3.835l-3.998.128zm.128 3.838c.093 3.017.77 5.642 2.225 7.688l3.26-2.316c-.85-1.197-1.41-2.966-1.487-5.496l-3.998.124zm2.225 7.688c1.619 2.279 4.125 3.274 7.07 3.274v-4c-2.004 0-3.125-.627-3.81-1.59l-3.26 2.316zm42.844 8.314l-.762 1.849.022.009.022.009.718-1.867zm-5.44-3.648l-1.493 1.331.019.022.02.02 1.454-1.373zm-3.2-5.44l-1.901.621.007.023.009.024 1.885-.668zm-1.216-6.656l-1.999.074.001.017.001.018 1.997-.109zm-.128-3.84h-2v.03l.001.031 1.999-.061zm0-4.352l-1.999-.059-.001.03v.029h2zm.128-3.968l-1.999-.073v.002l1.999.071zm1.216-6.592l-1.873-.702-.006.017-.006.017 1.885.668zm3.328-5.376l-1.454-1.373 1.454 1.373zm5.44-3.584l.73 1.862.01-.004.009-.004-.749-1.854zm15.552 0l-.762 1.849.016.007.016.006.73-1.862zm8.704 8.96l-1.885.668.006.017.006.017 1.873-.702zm1.344 6.592l1.999-.071-.001-.019-.001-.019-1.997.109zm.064 3.968h-2v.029l.001.03 1.999-.059zm0 4.352l-1.999-.059-.001.03v.029h2zm-.064 3.84l1.997.109.001-.018.001-.017-1.999-.074zm-1.28 6.656l1.885.668.005-.012-1.89-.656zm-3.264 5.44l-1.473-1.353-.001.002 1.474 1.351zm-5.44 3.648l.73 1.862.01-.004.009-.004-.749-1.854zm-2.368-9.472l1.63 1.158-1.63-1.158zm1.856-6.592l-1.999-.069v.007l1.999.062zm.064-3.84l-1.999-.064-.001.032v.032h2zm0-3.968h-2v.032l.001.032 1.999-.064zm-.064-3.712l-1.999.064v.01l1.999-.074zm-1.856-6.464l1.644-1.138-1.644 1.138zm-5.44-2.56l.034-2h-.068l.034 2zm-5.504 2.56l-1.644-1.138-.01.014-.01.015 1.664 1.109zm-1.792 6.464l1.999.074v-.01l-1.999-.064zm-.128 3.712l-1.999-.064-.001.032v.032h2zm0 3.968h-2v.032l.001.032 1.999-.064zm.128 3.84l1.999-.062v-.007l-1.999.069zm1.856 6.592l-1.63 1.158 1.63-1.158zm5.44 8.752c-2.895 0-5.285-.403-7.218-1.147l-1.436 3.734c2.504.963 5.405 1.413 8.654 1.413v-4zm-7.175-1.129c-1.944-.801-3.512-1.865-4.747-3.172l-2.908 2.746c1.666 1.765 3.725 3.133 6.132 4.124l1.523-3.698zm-4.708-3.13a14.212 14.212 0 01-2.808-4.777l-3.77 1.336a18.217 18.217 0 003.592 6.103l2.986-2.662zm-2.792-4.73c-.625-1.914-1.001-3.959-1.12-6.144l-3.994.218c.137 2.509.571 4.9 1.312 7.168l3.802-1.242zm-1.118-6.109a565.256 565.256 0 01-.128-3.827l-3.998.122c.043 1.411.086 2.696.128 3.853l3.998-.148zm-.127-3.766v-4.352h-4v4.352h4zm-.001-4.293a624.4 624.4 0 01.128-3.956l-3.998-.142a643.355 643.355 0 00-.128 3.98l3.998.118zm.128-3.954c.078-2.16.45-4.156 1.102-5.997l-3.77-1.336c-.799 2.255-1.238 4.654-1.33 7.187l3.998.146zm1.09-5.963c.678-1.807 1.648-3.369 2.909-4.705l-2.908-2.746c-1.64 1.736-2.889 3.758-3.747 6.047l3.746 1.404zm2.909-4.705c1.228-1.3 2.785-2.338 4.716-3.095l-1.46-3.724c-2.421.949-4.49 2.301-6.164 4.073l2.908 2.746zm4.735-3.103c1.93-.779 4.268-1.198 7.059-1.198v-4c-3.182 0-6.049.477-8.557 1.49l1.498 3.708zm7.059-1.198c2.793 0 5.104.42 6.982 1.193l1.523-3.698c-2.473-1.019-5.325-1.495-8.505-1.495v4zm7.014 1.206c1.931.757 3.488 1.795 4.716 3.095l2.908-2.746c-1.674-1.772-3.743-3.124-6.164-4.073l-1.46 3.724zm4.716 3.095a13.056 13.056 0 012.833 4.671l3.77-1.336a17.028 17.028 0 00-3.695-6.081l-2.908 2.746zm2.845 4.705c.692 1.844 1.102 3.84 1.22 5.999l3.994-.218c-.138-2.534-.624-4.933-1.468-7.185l-3.746 1.404zm1.218 5.961c.042 1.167.063 2.465.063 3.897h4c0-1.47-.022-2.817-.065-4.039l-3.998.142zm.064 3.956a72.888 72.888 0 010 4.234l3.998.118c.044-1.49.044-2.98 0-4.47l-3.998.118zm-.001 4.293c0 1.388-.021 2.643-.063 3.766l3.998.148c.043-1.181.065-2.486.065-3.914h-4zm-.061 3.731c-.118 2.172-.512 4.206-1.173 6.109l3.78 1.312c.79-2.278 1.249-4.682 1.387-7.203l-3.994-.218zm-1.168 6.097a13.707 13.707 0 01-2.852 4.755l2.946 2.706a17.708 17.708 0 003.676-6.125l-3.77-1.336zm-2.853 4.757c-1.179 1.286-2.732 2.344-4.715 3.145l1.498 3.708c2.454-.991 4.528-2.365 6.165-4.151l-2.948-2.702zm-4.696 3.137c-1.886.74-4.228 1.142-7.078 1.142v4c3.209 0 6.072-.451 8.538-1.418l-1.46-3.724zm-7.078-3.178c2.945 0 5.451-.995 7.07-3.274l-3.26-2.316c-.685.963-1.806 1.59-3.81 1.59v4zm7.07-3.274c1.454-2.046 2.132-4.671 2.225-7.688l-3.998-.124c-.078 2.53-.637 4.299-1.487 5.496l3.26 2.316zm2.225-7.681c.043-1.262.065-2.565.065-3.909h-4c0 1.301-.021 2.558-.063 3.771l3.998.138zm.064-3.845a63.567 63.567 0 000-4.096l-3.998.128c.041 1.28.041 2.56 0 3.84l3.998.128zm.001-4.032c0-1.344-.022-2.606-.065-3.786l-3.998.148c.042 1.124.063 2.337.063 3.638h4zm-.065-3.776c-.094-2.914-.782-5.474-2.211-7.538l-3.288 2.276c.875 1.264 1.424 3.013 1.501 5.39l3.998-.128zm-2.211-7.538c-1.602-2.314-4.093-3.371-7.05-3.422l-.068 4c1.992.034 3.128.684 3.83 1.698l3.288-2.276zm-7.118-3.422c-2.985.051-5.506 1.098-7.114 3.422l3.288 2.276c.696-1.004 1.845-1.664 3.894-1.698l-.068-4zm-7.134 3.451c-1.373 2.059-2.033 4.608-2.127 7.509l3.998.128c.077-2.39.611-4.15 1.457-5.419l-3.328-2.218zm-2.127 7.499a953.413 953.413 0 00-.128 3.722l3.998.128c.043-1.319.085-2.554.128-3.702l-3.998-.148zm-.129 3.786v3.968h4v-3.968h-4zm.001 4.032c.043 1.325.085 2.606.128 3.845l3.998-.138a1730.42 1730.42 0 01-.128-3.835l-3.998.128zm.128 3.838c.093 3.017.771 5.642 2.225 7.688l3.26-2.316c-.85-1.197-1.409-2.966-1.487-5.496l-3.998.124zm2.225 7.688c1.619 2.279 4.125 3.274 7.07 3.274v-4c-2.004 0-3.125-.627-3.81-1.59l-3.26 2.316zm34.588 8.506l-1.414 1.414 1.414-1.414zm0-43.904l1.414 1.414-1.414-1.414zm30.72 3.264l-1.255 1.558.007.005.007.005 1.241-1.568zm2.368 18.368l1.627 1.162-1.627-1.162zm-6.016 4.672l-.754-1.853-2.104.857 1.116 1.979 1.742-.983zm9.024 16l1.789-.894-.022-.045-.025-.044-1.742.983zm-.192 1.664l1.414 1.414.055-.054.05-.058-1.519-1.302zm-9.792-.192l-1.487 1.338.036.039.037.037 1.414-1.414zm-.832-1.152l1.789-.894-.012-.024-.012-.022-1.765.94zm-7.808-14.656l1.765-.94-.564-1.06h-1.201v2zm-7.744 0v-2h-2v2h2zm0-8.128h-2v2h2v-2zm13.376-1.6l-1.359-1.468-.014.013-.013.013 1.386 1.442zM173.917 206.2v-2h-2v2h2zm-8.576 34.8c-.021 0 .016-.003.085.024a.51.51 0 01.177.114l-2.828 2.828c.717.717 1.631 1.034 2.566 1.034v-4zm.262.138a.51.51 0 01.114.177c.027.069.024.106.024.085h-4c0 .935.317 1.849 1.034 2.566l2.828-2.828zm.138.262v-41.6h-4v41.6h4zm0-41.6c0-.021.003.016-.024.085a.51.51 0 01-.114.177l-2.828-2.828c-.717.717-1.034 1.631-1.034 2.566h4zm-.138.262a.51.51 0 01-.177.114c-.069.027-.106.024-.085.024v-4c-.935 0-1.849.317-2.566 1.034l2.828 2.828zm-.262.138h16.96v-4h-16.96v4zm16.96 0c5.037 0 8.744 1.168 11.353 3.27l2.51-3.116c-3.535-2.847-8.233-4.154-13.863-4.154v4zm11.367 3.28c2.505 1.984 3.849 4.875 3.849 8.992h4c0-5.099-1.728-9.248-5.367-12.128l-2.482 3.136zm3.849 8.992c0 2.788-.664 4.961-1.867 6.646l3.254 2.324c1.784-2.496 2.613-5.529 2.613-8.97h-4zm-1.867 6.646c-1.261 1.764-2.955 3.091-5.143 3.981l1.508 3.706c2.846-1.158 5.163-2.946 6.889-5.363l-3.254-2.324zm-6.131 6.817l9.024 16 3.484-1.966-9.024-16-3.484 1.966zm8.977 15.911c.015.031.012.03.003 0a.752.752 0 01-.022-.19h4c0-.611-.182-1.155-.403-1.598l-3.578 1.788zm-.019-.19a.67.67 0 01.047-.247c.028-.07.056-.101.05-.095l3.038 2.604c.516-.603.865-1.371.865-2.262h-4zm.202-.454a.716.716 0 01.454-.202v4c.879 0 1.719-.314 2.374-.97l-2.828-2.828zm.454-.202h-7.104v4h7.104v-4zm-7.104 0a1.31 1.31 0 01-.376-.041c-.028-.01.01-.002.062.051l-2.828 2.828c.891.892 2.066 1.162 3.142 1.162v-4zm-.241.086c-.318-.353-.469-.587-.53-.708l-3.578 1.788c.281.561.684 1.096 1.134 1.596l2.974-2.676zm-.554-.754l-7.808-14.656-3.53 1.88 7.808 14.656 3.53-1.88zm-9.573-15.716h-7.744v4h7.744v-4zm-9.744 2V241.4h4v-14.784h-4zm0 14.784c0 .021-.003-.016.024-.085a.51.51 0 01.114-.177l2.828 2.828c.717-.717 1.034-1.631 1.034-2.566h-4zm.138-.262a.51.51 0 01.177-.114c.069-.027.106-.024.085-.024v4c.935 0 1.849-.317 2.566-1.034l-2.828-2.828zm.262-.138h-6.976v4h6.976v-4zm1.6-20.512h8.192v-4h-8.192v4zm8.192 0c2.599 0 4.933-.584 6.57-2.158l-2.772-2.884c-.582.56-1.703 1.042-3.798 1.042v4zm6.543-2.132c1.649-1.528 2.369-3.605 2.369-5.948h-4c0 1.497-.432 2.407-1.087 3.012l2.718 2.936zm2.369-5.948c0-2.324-.685-4.393-2.25-5.958l-2.828 2.828c.653.654 1.078 1.614 1.078 3.13h4zm-2.25-5.958c-1.641-1.641-4.015-2.25-6.662-2.25v4c2.131 0 3.256.5 3.834 1.078l2.828-2.828zm-6.662-2.25h-8.192v4h8.192v-4zm-10.192 2v12.288h4V206.2h-4zm36.857 36.352l-1.414 1.414 1.414-1.414zm0-43.904l1.414 1.414-1.414-1.414zm31.296 7.36l1.414 1.414-1.414-1.414zm-21.888.448v-2h-2v2h2zm0 10.048h-2v2h2v-2zm20.48.448l1.414-1.414-1.414 1.414zm0 6.976l1.414 1.414-1.414-1.414zm-20.48.448v-2h-2v2h2zm0 10.368h-2v2h2v-2zm22.4.448l-1.414 1.414 1.414-1.414zm0 7.36l-1.414-1.414 1.414 1.414zM209.926 241c-.021 0 .016-.003.085.024a.52.52 0 01.177.114l-2.828 2.828c.717.717 1.631 1.034 2.566 1.034v-4zm.262.138a.51.51 0 01.114.177c.027.069.024.106.024.085h-4c0 .935.317 1.849 1.034 2.566l2.828-2.828zm.138.262v-41.6h-4v41.6h4zm0-41.6c0-.021.003.016-.024.085a.51.51 0 01-.114.177l-2.828-2.828c-.717.717-1.034 1.631-1.034 2.566h4zm-.138.262a.52.52 0 01-.177.114c-.069.027-.106.024-.085.024v-4c-.935 0-1.849.317-2.566 1.034l2.828 2.828zm-.262.138h28.992v-4h-28.992v4zm28.992 0c.021 0-.016.003-.085-.024a.51.51 0 01-.177-.114l2.828-2.828c-.717-.717-1.631-1.034-2.566-1.034v4zm-.262-.138a.51.51 0 01-.114-.177c-.027-.069-.024-.106-.024-.085h4c0-.935-.317-1.849-1.034-2.566l-2.828 2.828zm-.138-.262v5.12h4v-5.12h-4zm0 5.12c0-.025.005-.089.039-.169a.479.479 0 01.099-.157l2.828 2.828a3.48 3.48 0 001.034-2.502h-4zm.138-.326a.51.51 0 01.177-.114c.069-.027.106-.024.085-.024v4c.935 0 1.849-.317 2.566-1.034l-2.828-2.828zm.262-.138h-20.736v4h20.736v-4zm-22.736 2v10.048h4v-10.048h-4zm2 12.048h19.328v-4h-19.328v4zm19.328 0c.021 0-.016.003-.085-.024a.51.51 0 01-.177-.114l2.828-2.828c-.717-.717-1.631-1.034-2.566-1.034v4zm-.262-.138a.51.51 0 01-.114-.177c-.027-.069-.024-.106-.024-.085h4c0-.935-.317-1.849-1.034-2.566l-2.828 2.828zm-.138-.262v4.736h4v-4.736h-4zm0 4.736c0-.025.005-.089.039-.169a.479.479 0 01.099-.157l2.828 2.828a3.48 3.48 0 001.034-2.502h-4zm.138-.326a.51.51 0 01.177-.114c.069-.027.106-.024.085-.024v4c.935 0 1.849-.317 2.566-1.034l-2.828-2.828zm.262-.138h-19.328v4h19.328v-4zm-21.328 2v10.368h4v-10.368h-4zm2 12.368h21.248v-4h-21.248v4zm21.248 0c.021 0-.016.003-.085-.024a.51.51 0 01-.177-.114l2.828-2.828c-.717-.717-1.631-1.034-2.566-1.034v4zm-.262-.138a.51.51 0 01-.114-.177c-.027-.069-.024-.106-.024-.085h4c0-.935-.317-1.849-1.034-2.566l-2.828 2.828zm-.138-.262v5.056h4v-5.056h-4zm0 5.056c0 .021-.003-.016.024-.085a.51.51 0 01.114-.177l2.828 2.828c.717-.717 1.034-1.631 1.034-2.566h-4zm.138-.262a.51.51 0 01.177-.114c.069-.027.106-.024.085-.024v4c.935 0 1.849-.317 2.566-1.034l-2.828-2.828zm.262-.138h-29.504v4h29.504v-4zm10.617 1.552l-1.415 1.414.047.047.05.044 1.318-1.505zm0-43.904l-1.318-1.505-.05.044-.047.047 1.415 1.414zm8.512.064l-1.506 1.317.044.05.047.047 1.415-1.414zm.703.768l1.758-.954-.07-.129-.087-.117-1.601 1.2zm11.776 21.696l-1.757.954 1.748 3.221 1.763-3.213-1.754-.962zm11.905-21.696l1.753.962.018-.033.017-.035-1.788-.894zm.576-.768l-1.415-1.414-.047.047-.044.05 1.506 1.317zm8.576-.064l-1.415 1.414 1.415-1.414zm-8.768 43.904l-1.415 1.414 1.415-1.414zm-.448-27.008h2l-3.765-.942 1.765.942zm-8.128 15.232l1.748.971.008-.015.008-.014-1.764-.942zm-.832 1.024l1.317 1.505-1.317-1.505zm-5.696 0l-1.318 1.505h.001l1.317-1.505zm-.832-1.024l-1.765.942.008.014.008.015 1.749-.971zm-8.129-15.232l1.765-.942-3.765.942h2zM251.199 241c.025 0 .069.006.116.024.046.018.062.034.049.023l-2.635 3.01a3.703 3.703 0 002.47.943v-4zm.262.138a.541.541 0 01.114.177c.026.069.024.106.024.085h-4c0 .935.316 1.849 1.033 2.566l2.829-2.828zm.138.262v-41.6h-4v41.6h4zm0-41.6c0-.021.002.016-.024.085a.541.541 0 01-.114.177l-2.829-2.828c-.717.717-1.033 1.631-1.033 2.566h4zm-.235.353c.013-.011-.003.005-.049.023a.349.349 0 01-.116.024v-4c-.944 0-1.789.347-2.47.943l2.635 3.01zm-.165.047h5.951v-4h-5.951v4zm5.951 0c.15 0 .185.021.149.008a.506.506 0 01-.106-.056.718.718 0 01-.14-.123l3.011-2.634c-.815-.931-1.942-1.195-2.914-1.195v4zm-.006-.074a13.14 13.14 0 01.479.505l.029.036a.082.082 0 00.008.009l.002.003v.001c.001 0 0 0 0 0h.001l3.2-2.4c-.221-.294-.544-.636-.89-.982l-2.829 2.828zm.361.308l11.776 21.696 3.515-1.908-11.776-21.696-3.515 1.908zm15.287 21.704l11.904-21.696-3.507-1.924-11.904 21.696 3.507 1.924zm11.939-21.764c-.021.043-.034.062-.028.052l.048-.066c.056-.075.144-.184.273-.331l-3.011-2.634c-.299.342-.648.768-.859 1.191l3.577 1.788zm.202-.248a.424.424 0 01-.082.065c-.027.017-.046.024-.051.026-.009.003.044-.017.191-.017v-4c-.992 0-2.06.271-2.887 1.098l2.829 2.828zm.058.074h5.952v-4h-5.952v4zm5.952 0c.02 0-.016.003-.085-.024a.526.526 0 01-.178-.114l2.829-2.828c-.717-.717-1.631-1.034-2.566-1.034v4zm-.263-.138a.541.541 0 01-.114-.177c-.026-.069-.023-.106-.023-.085h4c0-.935-.317-1.849-1.034-2.566l-2.829 2.828zm-.137-.262v41.6h4v-41.6h-4zm0 41.6c0 .021-.003-.016.023-.085a.541.541 0 01.114-.177l2.829 2.828c.717-.717 1.034-1.631 1.034-2.566h-4zm.137-.262a.526.526 0 01.178-.114c.069-.027.105-.024.085-.024v4c.935 0 1.849-.317 2.566-1.034l-2.829-2.828zm.263-.138h-6.528v4h6.528v-4zm-6.528 0c.024 0 .088.005.169.039a.49.49 0 01.157.099l-2.829 2.828a3.48 3.48 0 002.503 1.034v-4zm.326.138a.541.541 0 01.114.177c.026.069.024.106.024.085h-4c0 .935.316 1.849 1.033 2.566l2.829-2.828zm.138.262v-25.856h-4V241.4h4zm-3.765-26.798l-8.128 15.232 3.529 1.884 8.128-15.232-3.529-1.884zm-8.112 15.203a1.832 1.832 0 01-.4.49l2.634 3.01a5.813 5.813 0 001.263-1.558l-3.497-1.942zm-.4.49a.245.245 0 01.053-.038.21.21 0 01.039-.018c.012-.004-.021.009-.119.009v4c.926 0 1.878-.258 2.661-.943l-2.634-3.01zm-.027-.047h-3.009v4h3.009v-4zm-3.009 0c-.098 0-.131-.013-.119-.009a.278.278 0 01.093.056l-2.634 3.01c.782.685 1.734.943 2.66.943v-4zm-.026.047a1.817 1.817 0 01-.401-.49l-3.497 1.942a5.813 5.813 0 001.263 1.558l2.635-3.01zm-.385-.461l-8.128-15.232-3.529 1.884 8.128 15.232 3.529-1.884zm-11.893-14.29V241.4h4v-25.856h-4zm0 25.856c0 .021-.002-.016.024-.085a.541.541 0 01.114-.177l2.829 2.828c.717-.717 1.033-1.631 1.033-2.566h-4zm.138-.262a.49.49 0 01.157-.099.461.461 0 01.17-.039v4a3.48 3.48 0 002.502-1.034l-2.829-2.828zm.327-.138h-6.528v4h6.528v-4zm53.013.72l.828-1.821-.828 1.821zm-6.592-5.76l-1.71 1.037.004.007.004.006 1.702-1.05zm-2.56-9.792l-1.999.046v.019l1.999-.065zm0-11.008l-1.999-.067v.022l1.999.045zm2.56-9.664l-1.705-1.045-.005.008 1.71 1.037zm6.656-5.952l-.84-1.815-.01.005.85 1.81zm19.84 0l-.85 1.81.01.005.84-1.815zm6.72 5.952l-1.705 1.045.004.006.003.006 1.698-1.057zm2.56 9.664l-2 .044.001.024.001.023 1.998-.091zm0 11.008l-1.998-.093v.014l-.001.014 1.999.065zm-2.56 9.792l1.702 1.05.004-.006.004-.007-1.71-1.037zm-6.592 5.76l-.828-1.821.828 1.821zm-3.904-8.576l1.374 1.453.001-.001-1.375-1.452zm2.56-7.296l-1.998-.091-.001.02v.02l1.999.051zm0-10.496l-2 .038.001.028.001.027 1.998-.093zm-1.216-5.44l1.756-.958-1.756.958zm-3.072-3.072l-.966 1.751.035.02.037.018.894-1.789zm-8.768 0l.894 1.789.024-.012.023-.012-.941-1.765zm-3.072 3.072l-1.756-.958-.011.021-.011.021 1.778.916zm-1.216 5.44l-1.999-.077v.031l1.999.046zm0 10.496l-1.999.045v.032l1.999-.077zm2.56 7.296l-1.395 1.433.01.01.011.01 1.374-1.453zm6.144 8.496c-3.668 0-6.722-.605-9.22-1.741l-1.656 3.642c3.134 1.424 6.778 2.099 10.876 2.099v-4zm-9.22-1.741c-2.466-1.12-4.354-2.777-5.718-4.989l-3.404 2.1c1.793 2.908 4.3 5.091 7.466 6.531l1.656-3.642zm-5.71-4.976c-1.356-2.236-2.151-5.141-2.271-8.82l-3.998.13c.136 4.172 1.048 7.794 2.849 10.764l3.42-2.074zm-2.271-8.801c-.042-1.82-.063-3.618-.063-5.394h-4c0 1.808.022 3.637.065 5.486l3.998-.092zm-.063-5.394c0-1.819.021-3.66.063-5.523l-3.998-.09a247.075 247.075 0 00-.065 5.613h4zm.063-5.501c.119-3.586.911-6.452 2.271-8.694l-3.42-2.074c-1.797 2.963-2.712 6.54-2.849 10.634l3.998.134zm2.266-8.686c1.417-2.311 3.338-4.03 5.801-5.187l-1.7-3.62c-3.169 1.488-5.685 3.738-7.511 6.717l3.41 2.09zm5.791-5.182c2.547-1.178 5.578-1.799 9.144-1.799v-4c-4.029 0-7.653.702-10.824 2.169l1.68 3.63zm9.144-1.799c3.521 0 6.505.62 9.006 1.794l1.7-3.62c-3.131-1.471-6.717-2.174-10.706-2.174v4zm9.016 1.799c2.507 1.16 4.443 2.879 5.855 5.182l3.41-2.09c-1.831-2.987-4.374-5.236-7.585-6.722l-1.68 3.63zm5.862 5.194c1.39 2.231 2.179 5.08 2.258 8.651l4-.088c-.092-4.109-1.009-7.702-2.862-10.677l-3.396 2.114zm2.26 8.698c.084 1.848.126 3.673.126 5.477h4c0-1.866-.043-3.752-.13-5.659l-3.996.182zm.126 5.477c0 1.76-.042 3.543-.126 5.347l3.996.186c.087-1.865.13-3.709.13-5.533h-4zm-.127 5.375c-.12 3.679-.915 6.584-2.271 8.82l3.42 2.074c1.801-2.97 2.713-6.592 2.849-10.764l-3.998-.13zm-2.263 8.807c-1.364 2.212-3.252 3.869-5.718 4.989l1.656 3.642c3.166-1.44 5.673-3.623 7.466-6.531l-3.404-2.1zm-5.718 4.989c-2.501 1.137-5.534 1.741-9.156 1.741v4c4.058 0 7.681-.676 10.812-2.099l-1.656-3.642zm-9.156-2.515c2.909 0 5.452-.893 7.454-2.787l-2.748-2.906c-1.156 1.093-2.666 1.693-4.706 1.693v4zm7.455-2.788c2.162-2.047 3.092-5.096 3.184-8.697l-3.998-.102c-.079 3.055-.855 4.87-1.936 5.895l2.75 2.904zm3.183-8.657c.086-1.903.13-3.683.13-5.339h-4c0 1.587-.042 3.305-.126 5.157l3.996.182zm.13-5.339c0-1.698-.044-3.478-.13-5.341l-3.996.186c.084 1.807.126 3.525.126 5.155h4zm-.128-5.286c-.047-2.424-.491-4.582-1.46-6.36l-3.512 1.916c.567 1.038.934 2.507.972 4.52l4-.076zm-1.46-6.36c-.939-1.721-2.245-3.059-3.934-3.903l-1.788 3.578c.871.436 1.613 1.146 2.21 2.241l3.512-1.916zm-3.862-3.865c-1.582-.873-3.376-1.273-5.318-1.273v4c1.386 0 2.493.283 3.386.775l1.932-3.502zm-5.318-1.273c-1.944 0-3.747.401-5.357 1.259l1.882 3.53c.95-.507 2.091-.789 3.475-.789v-4zm-5.31 1.235c-1.689.844-2.995 2.182-3.934 3.903l3.512 1.916c.597-1.095 1.339-1.805 2.21-2.241l-1.788-3.578zm-3.956 3.945c-.902 1.751-1.344 3.878-1.437 6.279l3.998.154c.078-2.036.446-3.536.995-4.601l-3.556-1.832zm-1.437 6.31a228.069 228.069 0 00-.065 5.294h4c0-1.647.021-3.381.063-5.202l-3.998-.092zm-.065 5.294c0 1.639.022 3.403.065 5.293l3.998-.09a232.061 232.061 0 01-.063-5.203h-4zm.065 5.325c.138 3.584 1.068 6.612 3.164 8.652l2.79-2.866c-1.061-1.032-1.838-2.868-1.956-5.94l-3.998.154zm3.185 8.672c2.008 1.9 4.576 2.787 7.518 2.787v-4c-2.093 0-3.621-.606-4.77-1.693l-2.748 2.906zm36.134 7.955l-1.414 1.414 1.414-1.414zm0-43.904l1.414 1.414-1.414-1.414zm8.384 0l-1.414 1.414 1.414-1.414zm.576.704l-1.789.894.048.095.057.089 1.684-1.078zm17.088 26.688l-1.684 1.078 3.684 5.755v-6.833h-2zm.448-27.392l1.414 1.414-1.414-1.414zm8.768 0l-1.414 1.414 1.414-1.414zm0 43.904l1.414 1.414.047-.047.044-.05-1.505-1.317zm-8.448 0l-1.6 1.2.085.114.101.1 1.414-1.414zm-.576-.704l-1.67 1.1.112.17.144.144 1.414-1.414zm-17.024-25.856l1.67-1.1-3.67-5.574v6.674h2zM350.556 241c-.021 0 .016-.003.085.024a.51.51 0 01.177.114l-2.828 2.828c.717.717 1.631 1.034 2.566 1.034v-4zm.262.138a.51.51 0 01.114.177c.027.069.024.106.024.085h-4c0 .935.317 1.849 1.034 2.566l2.828-2.828zm.138.262v-41.6h-4v41.6h4zm0-41.6c0-.021.003.016-.024.085a.51.51 0 01-.114.177l-2.828-2.828c-.717.717-1.034 1.631-1.034 2.566h4zm-.138.262a.51.51 0 01-.177.114c-.069.027-.106.024-.085.024v-4c-.935 0-1.849.317-2.566 1.034l2.828 2.828zm-.262.138h5.824v-4h-5.824v4zm5.824 0c.083 0 .142.005.181.01.039.005.052.01.045.008-.008-.003-.038-.013-.082-.038a.772.772 0 01-.15-.118l2.828-2.828c-.828-.829-1.921-1.034-2.822-1.034v4zm-.006-.138c.119.119.193.202.234.252l.021.027a.812.812 0 01-.054-.095l3.578-1.788c-.242-.483-.639-.912-.951-1.224l-2.828 2.828zm.306.368l17.088 26.688 3.368-2.156-17.088-26.688-3.368 2.156zm20.772 25.61V199.8h-4v26.24h4zm0-26.24c0-.021.003.016-.024.085a.51.51 0 01-.114.177l-2.828-2.828c-.717.717-1.034 1.631-1.034 2.566h4zm-.138.262a.483.483 0 01-.156.099.461.461 0 01-.17.039v-4a3.48 3.48 0 00-2.502 1.034l2.828 2.828zm-.326.138h6.528v-4h-6.528v4zm6.528 0c.021 0-.016.003-.085-.024a.52.52 0 01-.177-.114l2.828-2.828c-.717-.717-1.631-1.034-2.566-1.034v4zm-.262-.138a.51.51 0 01-.114-.177c-.027-.069-.024-.106-.024-.085h4c0-.935-.317-1.849-1.034-2.566l-2.828 2.828zm-.138-.262v41.6h4v-41.6h-4zm0 41.6c0-.026.006-.07.024-.117.018-.045.034-.061.023-.048l3.01 2.634a3.702 3.702 0 00.943-2.469h-4zm.138-.262a.52.52 0 01.177-.114c.069-.027.106-.024.085-.024v4c.935 0 1.849-.317 2.566-1.034l-2.828-2.828zm.262-.138h-5.888v4h5.888v-4zm-5.888 0a1.43 1.43 0 01-.181-.01c-.039-.005-.052-.01-.045-.008.008.003.038.013.082.038a.772.772 0 01.15.118l-2.828 2.828c.828.829 1.921 1.034 2.822 1.034v-4zm.192.352a9.026 9.026 0 00-.762-.918l-2.828 2.828c-.004-.004.028.029.106.124.073.089.167.21.284.366l3.2-2.4zm-.506-.604l-17.024-25.856-3.34 2.2 17.024 25.856 3.34-2.2zm-20.694-24.756V241.4h4v-25.408h-4zm0 25.408c0 .021-.003-.016.024-.085a.51.51 0 01.114-.177l2.828 2.828c.717-.717 1.034-1.631 1.034-2.566h-4zm.138-.262a.51.51 0 01.177-.114c.069-.027.106-.024.085-.024v4c.935 0 1.849-.317 2.566-1.034l-2.828-2.828zm.262-.138h-6.464v4h6.464v-4zm48.377-33.904h2v-2h-2v2zm-12.736-.448l-1.414 1.414 1.414-1.414zm0-8l1.414 1.414-1.414-1.414zm35.776 0l-1.414 1.414 1.414-1.414zm-12.736 8.448v-2h-2v2h2zM406.997 241c-.021 0 .016-.003.085.024a.52.52 0 01.177.114l-2.828 2.828c.717.717 1.631 1.034 2.566 1.034v-4zm.262.138a.51.51 0 01.114.177c.027.069.024.106.024.085h-4c0 .935.317 1.849 1.034 2.566l2.828-2.828zm.138.262v-34.304h-4V241.4h4zm-2-36.304h-11.648v4h11.648v-4zm-11.648 0c.025 0 .089.005.169.039a.479.479 0 01.157.099l-2.828 2.828a3.48 3.48 0 002.502 1.034v-4zm.326.138a.483.483 0 01.099.156.461.461 0 01.039.17h-4a3.48 3.48 0 001.034 2.502l2.828-2.828zm.138.326v-5.76h-4v5.76h4zm0-5.76c0-.021.003.016-.024.085a.51.51 0 01-.114.177l-2.828-2.828c-.717.717-1.034 1.631-1.034 2.566h4zm-.138.262a.479.479 0 01-.157.099.454.454 0 01-.169.039v-4a3.48 3.48 0 00-2.502 1.034l2.828 2.828zm-.326.138h33.536v-4h-33.536v4zm33.536 0c.021 0-.016.003-.085-.024a.51.51 0 01-.177-.114l2.828-2.828c-.717-.717-1.631-1.034-2.566-1.034v4zm-.262-.138a.51.51 0 01-.114-.177c-.027-.069-.024-.106-.024-.085h4c0-.935-.317-1.849-1.034-2.566l-2.828 2.828zm-.138-.262v5.76h4v-5.76h-4zm0 5.76c0-.025.005-.089.039-.17a.483.483 0 01.099-.156l2.828 2.828a3.48 3.48 0 001.034-2.502h-4zm.138-.326a.51.51 0 01.177-.114c.069-.027.106-.024.085-.024v4c.935 0 1.849-.317 2.566-1.034l-2.828-2.828zm.262-.138h-11.584v4h11.584v-4zm-13.584 2V241.4h4v-34.304h-4zm0 34.304c0 .021-.003-.016.024-.085a.51.51 0 01.114-.177l2.828 2.828c.717-.717 1.034-1.631 1.034-2.566h-4zm.138-.262a.51.51 0 01.177-.114c.069-.027.106-.024.085-.024v4c.935 0 1.849-.317 2.566-1.034l-2.828-2.828zm.262-.138h-7.104v4h7.104v-4zm28.894.72l.828-1.821-.828 1.821zm-6.592-5.76l-1.71 1.037.004.007.004.006 1.702-1.05zm-2.56-9.792l-1.999.046v.019l1.999-.065zm0-11.008l-1.999-.067v.022l1.999.045zm2.56-9.664l-1.705-1.045-.005.008 1.71 1.037zm6.656-5.952l-.84-1.815-.01.005.85 1.81zm19.84 0l-.85 1.81.01.005.84-1.815zm6.72 5.952l-1.705 1.045.004.006.003.006 1.698-1.057zm2.56 9.664l-1.999.044v.024l.001.023 1.998-.091zm0 11.008l-1.998-.093v.014l-.001.014 1.999.065zm-2.56 9.792l1.702 1.05.004-.006.004-.007-1.71-1.037zm-6.592 5.76l-.828-1.821.828 1.821zm-3.904-8.576l1.374 1.453.002-.001-1.376-1.452zm2.56-7.296l-1.998-.091-.001.02v.02l1.999.051zm0-10.496l-2 .038.001.028.001.027 1.998-.093zm-1.216-5.44l1.756-.958-1.756.958zm-3.072-3.072l-.966 1.751.035.02.037.018.894-1.789zm-8.768 0l.894 1.789.024-.012.023-.012-.941-1.765zm-3.072 3.072l-1.756-.958-.011.021-.011.021 1.778.916zm-1.216 5.44l-1.999-.077v.031l1.999.046zm0 10.496l-1.999.045v.032l1.999-.077zm2.56 7.296l-1.395 1.433.01.01.011.01 1.374-1.453zm6.144 8.496c-3.668 0-6.722-.605-9.22-1.741l-1.656 3.642c3.134 1.424 6.778 2.099 10.876 2.099v-4zm-9.22-1.741c-2.466-1.12-4.354-2.777-5.718-4.989l-3.404 2.1c1.793 2.908 4.3 5.091 7.466 6.531l1.656-3.642zm-5.71-4.976c-1.356-2.236-2.151-5.141-2.271-8.82l-3.998.13c.136 4.172 1.048 7.794 2.849 10.764l3.42-2.074zm-2.271-8.801c-.042-1.82-.063-3.618-.063-5.394h-4c0 1.808.022 3.637.065 5.486l3.998-.092zm-.063-5.394c0-1.819.021-3.66.063-5.523l-3.998-.09a247.075 247.075 0 00-.065 5.613h4zm.063-5.501c.119-3.586.911-6.452 2.271-8.694l-3.42-2.074c-1.797 2.963-2.712 6.54-2.849 10.634l3.998.134zm2.266-8.686c1.417-2.311 3.338-4.03 5.801-5.187l-1.7-3.62c-3.169 1.488-5.685 3.738-7.511 6.717l3.41 2.09zm5.791-5.182c2.547-1.178 5.578-1.799 9.144-1.799v-4c-4.029 0-7.653.702-10.824 2.169l1.68 3.63zm9.144-1.799c3.521 0 6.505.62 9.006 1.794l1.7-3.62c-3.131-1.471-6.717-2.174-10.706-2.174v4zm9.016 1.799c2.507 1.16 4.443 2.879 5.855 5.182l3.41-2.09c-1.831-2.987-4.374-5.236-7.585-6.722l-1.68 3.63zm5.862 5.194c1.39 2.231 2.179 5.08 2.259 8.651l3.999-.088c-.092-4.109-1.009-7.702-2.862-10.677l-3.396 2.114zm2.26 8.698c.084 1.848.126 3.673.126 5.477h4c0-1.866-.043-3.752-.13-5.659l-3.996.182zm.126 5.477c0 1.76-.042 3.543-.126 5.347l3.996.186c.087-1.865.13-3.709.13-5.533h-4zm-.127 5.375c-.12 3.679-.915 6.584-2.271 8.82l3.42 2.074c1.801-2.97 2.713-6.592 2.849-10.764l-3.998-.13zm-2.263 8.807c-1.364 2.212-3.252 3.869-5.718 4.989l1.656 3.642c3.166-1.44 5.673-3.623 7.466-6.531l-3.404-2.1zm-5.718 4.989c-2.501 1.137-5.534 1.741-9.156 1.741v4c4.058 0 7.681-.676 10.812-2.099l-1.656-3.642zm-9.156-2.515c2.909 0 5.452-.893 7.454-2.787l-2.748-2.906c-1.156 1.093-2.666 1.693-4.706 1.693v4zm7.456-2.788c2.161-2.047 3.091-5.096 3.183-8.697l-3.998-.102c-.079 3.055-.855 4.87-1.936 5.895l2.751 2.904zm3.182-8.657c.086-1.903.13-3.683.13-5.339h-4c0 1.587-.042 3.305-.126 5.157l3.996.182zm.13-5.339c0-1.698-.044-3.478-.13-5.341l-3.996.186c.084 1.807.126 3.525.126 5.155h4zm-.128-5.286c-.047-2.424-.491-4.582-1.46-6.36l-3.512 1.916c.567 1.038.934 2.507.972 4.52l4-.076zm-1.46-6.36c-.939-1.721-2.245-3.059-3.934-3.903l-1.788 3.578c.871.436 1.613 1.146 2.21 2.241l3.512-1.916zm-3.862-3.865c-1.582-.873-3.376-1.273-5.318-1.273v4c1.386 0 2.493.283 3.386.775l1.932-3.502zm-5.318-1.273c-1.944 0-3.747.401-5.357 1.259l1.882 3.53c.95-.507 2.091-.789 3.475-.789v-4zm-5.31 1.235c-1.689.844-2.995 2.182-3.934 3.903l3.512 1.916c.597-1.095 1.339-1.805 2.21-2.241l-1.788-3.578zm-3.956 3.945c-.902 1.751-1.344 3.878-1.437 6.279l3.998.154c.078-2.036.446-3.536.995-4.601l-3.556-1.832zm-1.437 6.31a228.069 228.069 0 00-.065 5.294h4c0-1.647.021-3.381.063-5.202l-3.998-.092zm-.065 5.294c0 1.639.022 3.403.065 5.293l3.999-.09a226.523 226.523 0 01-.064-5.203h-4zm.065 5.325c.138 3.584 1.068 6.612 3.164 8.652l2.79-2.866c-1.061-1.032-1.838-2.868-1.956-5.94l-3.998.154zm3.185 8.672c2.008 1.9 4.576 2.787 7.518 2.787v-4c-2.093 0-3.621-.606-4.77-1.693l-2.748 2.906zm45.638 7.891l-1.415 1.414.079.079.086.069 1.25-1.562zm-.832-1.344l-1.901.623.003.009 1.898-.632zm-13.44-41.024l-1.962.392.024.117.037.114 1.901-.623zm.32-1.472l1.414 1.414.054-.054.05-.058-1.518-1.302zm9.152.128l-1.495 1.329.078.088.088.078 1.329-1.495zm.703.96l-1.923.549.009.03.009.029 1.905-.608zm9.985 31.296l-1.906.608 1.912 5.992 1.9-5.996-1.906-.604zm9.92-31.296l-1.839-.788-.038.09-.03.094 1.907.604zm.703-.96l1.415 1.414.041-.041.039-.044-1.495-1.329zm9.153-.128l-1.519 1.302.05.058.054.054 1.415-1.414zm.32 1.472l1.9.623.037-.114.024-.117-1.961-.392zm-13.44 41.024l-1.901-.623-.022.068-.018.07 1.941.485zm-.832 1.344l1.328 1.495.009-.008-1.337-1.487zM492.827 241c-.177 0-.284-.022-.34-.04a.219.219 0 01-.075-.034l-2.499 3.124c.862.69 1.893.95 2.914.95v-4zm-.25.074a1.4 1.4 0 01-.349-.562l-3.795 1.264c.27.809.713 1.524 1.315 2.126l2.829-2.828zm-.346-.553l-13.44-41.024-3.801 1.246 13.44 41.024 3.801-1.246zm-13.379-40.793a1.01 1.01 0 01-.025-.184h-4c0 .332.041.659.102.968l3.923-.784zm-.025-.184a.8.8 0 01-.202.518l-2.829-2.828a3.225 3.225 0 00-.969 2.31h4zm-.098.406a.718.718 0 01-.241.174.762.762 0 01-.317.076v-4c-.985 0-1.854.417-2.479 1.146l3.037 2.604zm-.558.25h6.72v-4h-6.72v4zm6.72 0c.122 0 .15.019.119.006a.416.416 0 01-.142-.101l2.989-2.658c-.811-.912-1.906-1.247-2.966-1.247v4zm.143.071c.056.05.098.091.128.123.03.033.046.053.052.061l-.016-.028a.808.808 0 01-.055-.142l3.847-1.098c-.238-.832-.797-1.46-1.299-1.906l-2.657 2.99zm.127.073l9.984 31.296 3.811-1.216-9.984-31.296-3.811 1.216zm13.796 31.292l9.92-31.296-3.813-1.208-9.92 31.296 3.813 1.208zm9.852-31.112c-.008.017 0-.006.046-.069s.12-.151.234-.265l-2.829-2.828c-.442.442-.863.969-1.128 1.586l3.677 1.576zm.36-.419a.416.416 0 01-.142.101c-.031.013-.003-.006.12-.006v-4c-1.06 0-2.156.335-2.967 1.247l2.989 2.658zm-.022.095h6.72v-4h-6.72v4zm6.72 0a.762.762 0 01-.318-.076.718.718 0 01-.241-.174l3.037-2.604a3.21 3.21 0 00-2.478-1.146v4zm-.455-.138a.796.796 0 01-.201-.518h4c0-.906-.364-1.704-.97-2.31l-2.829 2.828zm-.201-.518c0 .009-.002.066-.026.184l3.923.784c.061-.309.103-.636.103-.968h-4zm.035-.047l-13.44 41.024 3.801 1.246 13.44-41.024-3.801-1.246zm-13.48 41.162c-.023.092-.072.2-.229.342l2.675 2.974c.696-.626 1.202-1.414 1.435-2.346l-3.881-.97zm-.22.334c.048-.043.075-.045.036-.033-.046.015-.161.04-.371.04v4c1.014 0 2.116-.238 2.992-1.017l-2.657-2.99zm-.335.007h-8.384v4h8.384v-4z" fill="#23C7EF"/><path d="M7.963 150.329L2 156.292V163h99.134l90.19-90.19 89.444 89.445h165.473l-11.181-11.181H302.384l-43.977-43.977 5.218-5.217 65.593-65.593 125.967 125.968h101.371l-11.181-17.144-1.491-69.32-15.653-9.69-16.398 14.163v67.083h-4.472l-.745-8.199-17.889-11.18v-10.436l18.634 11.181v-8.199l-18.634-12.671v-8.945l18.634 11.181v-9.69l-18.634-12.671v-7.454l18.634 11.18V82.5l-18.634-11.926V61.63l18.634 9.69V60.883l-18.634-11.18v-8.945l18.634 11.926V42.25l-18.634-13.417V19.89l18.634 14.162V19.889L485 2l-10.435 7.454-32.051 20.125-20.125-20.125h-11.926l-21.616 21.615v35.033l-5.217-5.218-55.903-55.903L242.009 90.7l-52.176-50.685-65.592 65.592v-19.38h5.217V72.81H94.426v13.417h6.708v43.977l-21.615 20.125H7.963z" stroke="#23C7EF" stroke-width="3"/><path d="M412.699 9.454v67.828h3.727V9.454m-27.578 56.648l87.953 87.954h74.537l-5.217-8.2h-33.542m-345.106-6.708v-10.435l15.652-14.907h5.218m-20.87 25.342h20.87m-20.87 0v5.218m20.87-30.56v25.342m0-25.342h3.727m-3.727 25.342h3.727m-3.727 0l-.168 5.218m-.577 17.889h-20.125v-17.889m20.125 17.889l.577-17.889m-.577 17.889h4.472m19.38-23.107h-19.38m19.38 0v-10.435l-12.672-14.907h-6.708m19.38 25.342v5.218m-19.38-5.218v-25.342m0 25.342v23.107m19.38-17.889v17.889h-19.38m19.38-17.889h-23.275m0 0h-20.702m138.638-40.25V93.681l15.653-14.908h5.218v25.343m-20.871 0h20.871m-20.871 0v5.217m20.871-5.217h3.727m-3.727 0l-.169 5.217m-.577 17.889h-20.125v-17.889m20.125 17.889l.577-17.889m-.577 17.889h4.473m19.379-23.106h-19.379m19.379 0V93.681l-12.671-14.908h-6.708v25.343m19.379 0v5.217m-19.379-5.217v23.106m19.379-17.889v17.889h-19.379m19.379-17.889h-23.275m0 0h-20.702M242.009 90.7l16.398 16.397" stroke="#23C7EF" stroke-width="3"/></svg>